<svg width="21" height="20" viewBox="0 0 21 20" fill="none" xmlns="http://www.w3.org/2000/svg">
<path d="M2.75 0.5C1.51367 0.5 0.5 1.51367 0.5 2.75V17.75C0.5 18.9863 1.51367 20 2.75 20H17.75C18.9863 20 20 18.9863 20 17.75V14L18.5 15.5V17.75C18.5 18.1719 18.1719 18.5 17.75 18.5H2.75C2.32812 18.5 2 18.1719 2 17.75V2.75C2 2.32812 2.32812 2 2.75 2H17.75C18.1719 2 18.5 2.32812 18.5 2.75V5L20 6.5V2.75C20 1.51367 18.9863 0.5 17.75 0.5H2.75ZM15.0957 5.03516L14.0293 6.08984L17.4395 9.5H6.5V11H17.4395L14.0293 14.4043L15.0957 15.4707L20.3105 10.25L15.0957 5.03516Z" fill="#A9A9CD"/>
</svg>
