<svg width="788" height="352" viewBox="0 0 788 352" fill="none" xmlns="http://www.w3.org/2000/svg">
<g opacity="0.5">
<path d="M760.074 349.866C760.074 349.866 825.869 226.553 748.423 167.703C705.21 134.866 654.637 159.453 610.82 71.3149C585.32 20.0233 496.085 4.45468 451.462 74.4808C406.84 144.507 388.912 189.013 329.261 164.916C293.743 150.568 278.44 105.349 223.169 114.804C159.29 125.732 167.843 191.982 120.771 180.446C29.9971 158.199 -37.2564 285.298 25.4904 350.741L760.074 349.866Z" stroke="#515165" stroke-width="2" stroke-dasharray="7 8"/>
<path d="M451.15 299.27C446.489 298.304 440.796 293.825 441.021 292.367C441.201 291.223 447.09 293.125 451.15 294.378V275.531C450.169 275.275 449.534 275.169 449.534 275.169C449.534 275.169 436.725 284.693 434.227 284.115C431.729 283.539 443.589 273.834 443.589 273.834C439.127 271.687 425.253 273.033 425.253 273.033C425.253 273.033 420.634 287.933 418.356 286.758C416.077 285.584 423.118 273.772 423.118 273.772C418.148 273.474 412.054 277.164 412.054 277.164C403.706 283.755 412.601 294.131 412.601 294.131C412.601 294.131 410.887 299.261 405.616 303.931C405.616 303.931 398.092 309.497 397.566 319.443L398.935 319.567C398.935 319.567 401.098 310.304 405.035 305.92C405.189 305.763 405.411 305.536 405.684 305.257C406.327 304.665 406.777 304.218 407.077 303.886C409.036 302.006 411.744 299.607 413.048 299.377C413.048 299.377 412.983 299.135 412.992 298.719C413.008 298.93 413.028 299.146 413.048 299.377C413.495 304.62 423.668 309.199 429.928 310.14C436.185 311.085 434.253 308.511 432.095 304.695C429.937 300.88 423.112 299.174 421.556 297.418C419.999 295.659 423.219 295.657 426.99 297.379C430.76 299.101 431.277 303.692 437.326 306.592C441.968 308.814 448.405 303.425 451.15 300.793V299.27Z" fill="#363647"/>
<path d="M351.576 249.924C354.88 254.596 359.626 260.851 361.508 261.086C364.526 261.463 355.282 245.805 355.282 245.805C361.132 245.24 376.034 252.408 376.034 252.408C376.034 252.408 375.09 270.895 378.108 270.518C381.128 270.139 378.108 254.105 378.108 254.105C383.769 255.804 389.051 262.407 389.051 262.407C395.654 273.16 381.505 281.083 381.505 281.083L379.192 286.036C379.091 286.258 378.981 286.489 378.869 286.73C378.866 286.739 378.864 286.742 378.864 286.742C376.223 292.4 363.017 293.344 355.661 291.836C353.382 291.366 352.118 290.847 351.576 290.248C351.112 289.74 351.171 289.178 351.576 288.545C352.231 287.523 353.781 286.317 355.473 284.882C359.434 281.516 367.735 282.403 370.187 281.083C372.637 279.762 369.055 278.442 364.149 278.818C359.851 279.147 357.437 282.957 351.576 284.398V249.924Z" fill="#63637F"/>
<path d="M385.277 294.853C381.316 287.496 381.505 281.082 381.505 281.082C372.953 271.548 351.25 260.249 351.25 260.249C378.081 276.994 378.864 286.741 378.864 286.741C380.221 287.533 382.256 291.308 383.668 294.205C383.87 294.698 384.188 295.38 384.661 296.307C384.853 296.725 385.007 297.068 385.113 297.307C387.706 303.796 386.332 315.001 386.332 315.001L387.904 315.423C391.386 304.13 385.277 294.853 385.277 294.853Z" fill="#63637F"/>
<path d="M451.15 274.486C449.833 275.017 448.456 275.264 447.031 275.129C436.588 274.135 433.357 267.667 426.892 267.172C420.424 266.675 415.701 268.414 418.932 270.156C422.166 271.895 433.107 270.727 438.33 275.166C443.551 279.605 447.779 282.339 438.08 284.328C428.384 286.317 410.975 285.075 407.494 277.616L404.013 270.156C404.013 270.156 385.362 259.71 394.067 245.538C394.067 245.538 401.029 236.834 408.489 234.594C408.489 234.594 404.51 255.731 408.489 256.229C412.467 256.726 411.225 232.358 411.225 232.358C411.225 232.358 430.87 222.909 438.577 223.653C438.577 223.653 426.394 244.293 430.373 243.796C434.352 243.298 448.026 222.412 448.026 222.412C448.026 222.412 449.254 222.184 451.15 222.021V250.359C447.445 250.716 444.598 251.272 444.795 252.25C445.014 253.346 447.65 254.734 451.15 255.748V274.486Z" fill="#63637F"/>
<path d="M462.202 234.347C462.202 234.347 409.982 251.256 404.014 270.155C404.014 270.155 404.263 278.609 399.041 288.307C399.041 288.307 390.988 300.537 395.579 315.423L397.651 314.866C397.651 314.866 395.839 300.096 399.258 291.542C399.398 291.227 399.6 290.775 399.853 290.224C400.476 289.002 400.897 288.103 401.162 287.454C403.023 283.635 405.706 278.659 407.495 277.614C407.495 277.614 395.808 261.203 462.202 234.347Z" fill="#63637F"/>
<path d="M366.852 311.172C366.852 331.349 383.208 347.705 403.384 347.705C423.56 347.705 439.916 331.349 439.916 311.172H366.852Z" fill="#63637F"/>
<path d="M435.914 345.459H370.855C368.366 345.459 366.348 347.477 366.348 349.966H440.422C440.422 347.477 438.404 345.459 435.914 345.459Z" fill="#63637F"/>
<path d="M440.187 312.293H366.211C365.902 312.293 365.65 312.042 365.65 311.733C365.65 311.423 365.902 311.172 366.211 311.172H440.187C440.497 311.172 440.747 311.423 440.747 311.733C440.747 312.042 440.497 312.293 440.187 312.293Z" fill="#363647"/>
<path d="M459.248 349.966H601.331C605.786 349.966 609.431 346.321 609.431 341.866V57.7327C609.431 53.2783 605.786 49.6333 601.331 49.6333H459.248C454.794 49.6333 451.148 53.2783 451.148 57.7327V341.866C451.148 346.321 454.794 349.966 459.248 349.966Z" fill="#63637F"/>
<path d="M507.092 64.2031H548.238C549.119 64.2031 549.839 63.4832 549.839 62.6027C549.839 61.7218 549.119 61.0015 548.238 61.0015H507.092C506.212 61.0015 505.492 61.7218 505.492 62.6027C505.492 63.4832 506.212 64.2031 507.092 64.2031Z" fill="#363647"/>
<path d="M555.546 64.2031C556.426 64.2031 557.147 63.4832 557.147 62.6027C557.147 61.7218 556.426 61.0015 555.546 61.0015C554.665 61.0015 553.945 61.7218 553.945 62.6027C553.945 63.4832 554.665 64.2031 555.546 64.2031Z" fill="#363647"/>
<path d="M538.654 333.371C538.654 327.669 534.031 323.046 528.328 323.046C522.626 323.046 518.004 327.669 518.004 333.371C518.004 339.073 522.626 343.696 528.328 343.696C534.031 343.696 538.654 339.073 538.654 333.371Z" fill="#363647"/>
<rect x="464.658" y="73.4487" width="131.597" height="242.921" fill="#363647"/>
<path d="M216.943 80.731H344.313C348.307 80.731 351.574 83.9981 351.574 87.9914V342.705C351.574 346.699 348.307 349.966 344.313 349.966H216.943C212.949 349.966 209.682 346.699 209.682 342.705V87.9914C209.682 83.9981 212.949 80.731 216.943 80.731Z" fill="#63637F"/>
<rect x="214.756" y="102.257" width="131.443" height="218.165" fill="#363647"/>
<path d="M264.538 90.9219H301.424C302.213 90.9219 302.859 91.5678 302.859 92.3571C302.859 93.1462 302.213 93.7923 301.424 93.7923H264.538C263.749 93.7923 263.104 93.1462 263.104 92.3571C263.104 91.5678 263.749 90.9219 264.538 90.9219Z" fill="#363647"/>
<path d="M257.988 90.9219C258.777 90.9219 259.423 91.5678 259.423 92.3571C259.423 93.1462 258.777 93.7923 257.988 93.7923C257.198 93.7923 256.553 93.1462 256.553 92.3571C256.553 91.5678 257.198 90.9219 257.988 90.9219Z" fill="#363647"/>
<path d="M280.48 329.647C284.539 329.647 287.829 332.938 287.829 336.996C287.829 341.055 284.539 344.346 280.48 344.346C276.421 344.346 273.131 341.055 273.131 336.996C273.131 332.938 276.421 329.647 280.48 329.647Z" fill="#363647"/>
<path d="M74.8751 349.791C74.8751 349.791 63.0132 350.221 61.2571 349.791C61.183 349.461 58.9914 335.628 58.9914 335.628L57.1674 322.836C56.9123 321.048 59.0504 319.866 60.3774 321.091C61.0296 321.693 61.6339 322.567 62.0539 323.834C63.5468 328.34 67.947 335.598 74.4763 337.492C81.3448 339.485 74.8751 349.791 74.8751 349.791Z" fill="#363647"/>
<path d="M136.736 285.657L135.57 286.072C135.57 286.072 132.515 280.905 126.272 282.994C126.272 282.994 123.779 284.038 125.258 285.402C126.737 286.767 126.371 286.061 128.414 288.024C130.455 289.987 133.244 290.972 135.165 290.31L137.294 289.56L136.736 285.657Z" fill="#E49963"/>
<path d="M189.341 328.921C189.341 328.921 145.816 295.664 133.435 295.301C121.052 294.938 80.8887 349.909 80.8887 349.909H95.9286C95.9286 349.909 122.43 335.806 131.752 322.403C132.69 321.054 134.696 321.115 135.567 322.507C140.385 330.208 152.986 349.097 161.132 349.909C169.879 350.782 189.341 328.921 189.341 328.921Z" fill="#363647"/>
<path d="M185.174 238.426C185.174 238.426 185.448 240.605 185.802 243.295C186.273 246.79 186.901 251.129 187.314 252.484L200.41 255.802L201.372 246.279C201.372 246.279 198.092 239.702 198.112 230.396L185.174 238.426Z" fill="#FFB27D"/>
<path d="M196.564 258.246L177.955 281.041L171.448 289.012C171.448 289.012 159.793 291.195 153.675 291.726C149.259 292.108 135.164 290.309 135.164 290.309L135.569 286.071C135.569 286.071 144.316 282.351 148.471 281.479C152.711 280.591 163.419 278.175 163.419 278.175C167.469 276.702 182.856 256.811 182.856 256.811L196.564 258.246Z" fill="#5C5A72"/>
<path d="M208.706 339.643L170.649 336.537C170.649 336.537 170.544 335.774 170.368 334.494C170.313 334.098 170.283 333.684 170.271 333.252C170.184 329.45 171.679 324.325 172.322 319.287C172.747 315.962 172.802 312.674 171.784 309.83C170.613 306.55 170.074 300.322 169.836 294.402C169.536 286.988 169.709 280.06 169.705 280.01C169.324 275.288 170.446 270.045 172.328 265.06C176.04 255.229 182.962 249.662 186.214 246.361C186.214 246.361 190.186 247.342 200.51 244.245C200.817 244.153 201.702 245.452 202.097 246.209C202.097 246.209 206.564 251.863 208.401 265.65C210.045 277.99 208.706 339.643 208.706 339.643Z" fill="#63637F"/>
<path d="M199.184 271.307C199.109 273.038 183.796 321.781 185.672 325.378C194.753 342.773 171.862 334.936 170.62 330.45C171.045 327.124 172.802 312.674 171.784 309.83C170.613 306.55 170.073 300.323 169.836 294.402C170.219 292.242 171.116 290.012 172.328 287.856C178.018 286.966 199.754 257.887 199.184 271.307Z" fill="#5C5A72"/>
<path d="M123.07 280.813L127.79 277.572C127.83 277.544 127.873 277.523 127.917 277.508L127.92 277.506L128.811 277.143L133.153 290.857L129.355 293.931L128.673 294.228L128.671 294.229L128.661 294.233L128.661 294.232C128.353 294.357 127.96 294.159 127.796 293.756L122.879 281.708C122.739 281.363 122.819 280.985 123.07 280.813Z" fill="#373480"/>
<path d="M134.123 290.045L129.618 293.816C129.301 294.081 128.806 293.887 128.616 293.422L123.7 281.373C123.559 281.028 123.64 280.651 123.89 280.478L128.61 277.237C128.932 277.016 129.392 277.219 129.573 277.661L134.273 289.18C134.406 289.505 134.343 289.86 134.123 290.045Z" fill="#575B9F"/>
<path d="M133.391 288.568L128.955 292.282L124.496 281.355L129.145 278.163L133.391 288.568Z" fill="#363647"/>
<path d="M131.641 291.081C131.579 290.861 131.667 290.627 131.837 290.558C132.007 290.488 132.195 290.61 132.256 290.829C132.318 291.049 132.231 291.284 132.06 291.353C131.891 291.422 131.703 291.3 131.641 291.081Z" fill="#373480"/>
<path d="M125.17 281.558L128.944 278.895L132.858 288.278L129.014 291.275L125.17 281.558Z" fill="#363647"/>
<path d="M126.156 282.123L128.801 280.257L131.543 286.831L128.849 288.931L126.156 282.123Z" fill="#363647"/>
<path d="M136.188 292.304L133.794 292.226C133.794 292.226 131.408 287.279 125.948 289.624C125.948 289.624 123.757 290.767 124.965 292.044C126.173 293.319 125.891 292.64 127.555 294.479C129.219 296.318 131.57 297.159 133.251 296.418L135.115 295.581L136.188 292.304Z" fill="#E49963"/>
<path d="M195.645 246.445C195.645 246.445 186.302 250.391 181.45 258.822C178.216 264.441 172.648 273.999 169.293 279.75C167.506 282.813 164.52 284.988 161.057 285.75L149.719 288.245L133.794 292.225C133.794 292.225 133.417 292.9 133.509 294.005C133.639 295.571 134.664 295.886 134.664 295.886C134.664 295.886 149.533 299.465 154.826 299.863C167.866 300.843 174.047 299.134 175.963 298.43C176.391 298.272 176.774 298.044 177.127 297.757C179.124 296.134 186.787 289.714 190.82 283.582C194.745 277.615 205.567 262.11 205.567 262.11L195.645 246.445Z" fill="#63637F"/>
<path d="M208.966 324.92C208.966 324.92 212.719 349.909 201.211 349.909H74.5567C74.5567 349.909 71.0592 347.547 70.8133 343.048C70.5534 338.276 72.0611 336.585 72.0611 336.585C72.0611 336.585 117.401 335.007 126.607 331.922C172.746 316.46 208.966 324.92 208.966 324.92Z" fill="#5C5A72"/>
<path d="M185.174 238.426C185.174 238.426 185.448 240.605 185.802 243.295C197.901 239.766 198.112 230.396 198.112 230.396L185.174 238.426Z" fill="#E8945B"/>
<path d="M183.271 239.124C183.271 239.124 197.978 239.56 198.108 230.396C198.238 221.234 200.225 215.119 190.84 214.454C181.455 213.788 179.581 217.258 178.794 220.306C178.006 223.354 179.449 238.774 183.271 239.124Z" fill="#FFB27D"/>
<path d="M198.371 233.986C198.371 233.986 196.818 233.726 197.068 231.586C197.319 229.445 197.316 226.647 195.575 227.169C193.835 227.69 193.749 229.084 193.034 228.27C192.318 227.456 192.305 224.029 187.127 223.79C181.949 223.551 179.845 225.353 177.437 224.295C175.029 223.236 174.902 219.591 174.902 219.591C174.902 219.591 175.587 220.893 176.621 221.307C176.621 221.307 172.604 215.812 177.255 212.044C181.906 208.277 186.648 210.743 189.34 210.906C195.271 211.266 199.102 211.621 201.039 215.518C202.976 219.415 202.177 230.235 198.371 233.986Z" fill="#2A2B3A"/>
<path d="M555.637 19.9003L595.097 31.4784L570.996 9.38428L568.79 15.03L558.735 15.3869L555.637 19.9003Z" fill="#363647"/>
<path d="M595.097 31.4787L564.069 9.33943L531.445 2.93115L595.097 31.4787Z" fill="white"/>
<path d="M570.996 9.38456L595.098 31.4787L578.519 0L570.996 9.38456Z" fill="white"/>
<path d="M666.117 79.8352C668.722 78.2407 672.883 80.1462 672.883 80.1462C671.445 78.1238 666.194 78.7851 666.194 78.7851C676.653 76.5602 678.836 83.2461 679.016 83.8721C686.601 77.0263 698.746 91.6189 698.746 91.6189L681.318 114.721C681.318 114.721 679.728 111.045 677.628 112.192C674.354 113.981 668.021 106.743 670.045 97.2194C670.263 96.19 670.526 95.2509 670.818 94.387C670.138 94.6854 669.366 94.9247 668.645 94.9247C666.739 94.9247 663.861 90.0635 663.473 88.4303C663.083 86.7966 663.511 81.4297 666.117 79.8352Z" fill="#2A2B3A"/>
<path d="M715.966 180.402C727.003 176.335 737.636 157.446 737.636 157.446L734.154 155.009C731.255 159.25 718.21 167.394 718.21 167.394C717.913 163.82 717.479 160.576 716.946 157.639C713.325 137.676 705.041 131.763 702.817 130.507C702.458 130.303 702.256 130.224 702.256 130.224C702.256 130.224 702.263 130.371 702.28 130.649C702.313 131.25 702.384 132.46 702.498 134.119C703.362 146.479 706.742 183.802 715.966 180.402Z" fill="#FFB27D"/>
<path d="M662.616 200.786C668.069 188.556 670.677 185.098 670.769 181.25C670.841 178.207 669.341 174.924 666.426 166.873C665.74 164.977 665.267 163.026 664.975 161.054C662.669 145.534 671.644 128.757 677.223 127.613C678.775 127.203 681.406 121.597 681.373 112.565L682.072 112.702L693.817 115.028C693.817 115.028 693.55 118.725 693.542 122.207C693.534 125.109 693.709 127.859 694.366 128.206C695.212 128.282 695.711 128.332 695.711 128.332C695.711 128.332 705.504 141.934 706.328 154.583C707.152 167.233 698.485 172.728 706.394 198.006C714.468 223.824 659.603 207.543 662.616 200.786Z" fill="#FFB27D"/>
<path d="M693.819 115.028C693.819 115.028 693.551 118.725 693.543 122.207C686.97 122.022 683.496 116.026 682.072 112.703L693.819 115.028Z" fill="#E8945B"/>
<path d="M680.86 111.424C680.86 111.424 677.416 105.982 676.589 101.328C675.999 98.0054 677.691 85.6901 690.067 87.4638C690.067 87.4638 693.661 87.8178 697.039 90.0999C699.726 91.9146 703.604 95.8324 699.269 106.579L698.143 110.209L680.86 111.424Z" fill="#363647"/>
<path d="M696.014 118.325C696.014 118.325 680.463 118.582 680.452 108.895C680.441 99.2083 678.427 92.7175 688.355 92.1443C698.284 91.5708 700.217 95.2649 701.007 98.4975C701.797 101.73 700.059 118.009 696.014 118.325Z" fill="#FFB27D"/>
<path d="M676.386 318.138C680.298 333.702 686.188 345.633 686.188 345.633L691.317 345.278C691.317 345.278 688.802 333.314 688.946 317.149C689.047 305.849 690.445 292.493 694.91 279.74C710.255 235.918 707.775 204.024 707.775 204.024L678.92 207.399L677.575 207.557C677.456 220.809 677.113 238.801 676.814 252.871C676.549 265.524 676.317 275.002 676.317 275.002C670.769 286.95 672.784 303.815 676.386 318.138Z" fill="#63637F"/>
<path d="M659.833 315.654C661.492 333.36 668.797 344.81 668.797 344.81L671.246 346.591C671.246 346.591 673.565 334.116 675.206 319.274C676.769 305.168 678.912 290.24 681.336 285.684C690.959 267.614 693.856 199.399 693.856 199.399L664.6 197.948C661.658 202.894 660.375 211.007 660.071 220.232C659.3 243.513 664.774 273.87 665.591 278.26C665.591 278.263 665.591 278.266 665.594 278.271C665.658 278.61 665.559 278.944 665.401 279.252C659.581 290.775 658.739 303.957 659.833 315.654Z" fill="#63637F"/>
<path d="M684.647 104.952C678.112 106.632 675.277 104.881 675.277 104.881C675.277 104.881 680.29 100.9 681.33 93.9495C681.33 93.9495 684.2 84.89 695.312 91.7088C696.33 90.8353 698.145 90.2034 700.545 93.1117C704.15 97.4813 700.942 105.206 700.942 105.206C699.462 105.378 699.114 100.3 698.338 97.8338C697.768 96.0188 695.897 94.1667 694.947 93.3143C694.635 94.4623 691.501 105.318 683.695 108.926C683.695 108.926 687.291 105.735 689.935 101.306C688.422 103.024 686.64 104.439 684.647 104.952Z" fill="#2A2B3A"/>
<path d="M639.826 217.276C641.011 216.528 642.157 214.233 642.566 213.35C646.183 204.347 650.349 186.889 651.726 183.675C652.229 182.505 653.191 176.981 654.453 169.865C656.716 157.097 659.936 139.198 663.161 132.105C663.549 131.256 664.658 130.532 666.112 129.925C670.502 128.089 678.009 127.322 678.009 127.322L674.089 144.299L672.939 149.277C672.939 149.277 669.45 161.575 666.745 171.626C665.438 176.478 664.319 180.81 663.862 182.975C662.462 189.623 647.061 215.176 647.061 215.176L647.056 215.175L647.06 215.176C647.06 215.176 646.593 215.487 646.049 217.043C645.505 218.598 641.149 226.844 639.282 226.844C637.415 226.844 637.027 224.043 636.637 222.254C636.249 220.465 638.348 218.21 639.826 217.276Z" fill="#FFB27D"/>
<path d="M734.156 155.008C734.153 154.528 733.752 147.582 734.989 146.123C736.225 144.664 738.75 142.589 739.544 142.652C740.338 142.716 743.444 146.843 742.51 150.005C741.576 153.167 737.637 157.445 737.637 157.445L734.156 155.008Z" fill="#FFB27D"/>
<path d="M728.484 146.512L735.683 148.669C735.922 148.741 736.172 148.605 736.245 148.367L740.358 134.64C740.43 134.401 740.295 134.15 740.055 134.079L732.858 131.921C732.619 131.849 732.367 131.985 732.295 132.224L728.181 145.95C728.11 146.189 728.245 146.44 728.484 146.512Z" fill="#63637F"/>
<path d="M730.356 147.073L736.885 149.03C737.309 149.156 737.755 148.916 737.882 148.492L741.795 135.435C741.923 135.012 741.683 134.565 741.259 134.439L734.729 132.482C734.306 132.355 733.859 132.595 733.732 133.019L729.819 146.075C729.692 146.499 729.933 146.946 730.356 147.073Z" fill="#363647"/>
<path d="M659.832 315.653C661.491 333.36 668.796 344.809 668.796 344.809L671.29 347.081C671.29 347.081 673.564 334.116 675.205 319.274C673.477 319.399 665.855 319.677 659.832 315.653Z" fill="#FFB27D"/>
<path d="M666.682 172.157C664.95 172.622 659.37 173.669 652.984 170.15C655.619 157.291 659.364 139.264 663.118 132.121C663.299 131.776 663.616 131.453 664.042 131.148C664.018 131.119 664.004 131.103 664.004 131.103C667.521 128.546 674.709 127.76 674.709 127.76C674.709 127.76 676.924 137.589 678.325 138.871C679.725 140.154 700.026 142.254 700.494 139.921C700.941 137.693 695.216 129.024 694.789 128.26C694.766 128.225 695.711 128.332 695.711 128.332C698.026 128.636 699.657 128.869 700.836 129.069C703.142 129.465 704.551 130.451 704.684 130.604C707.417 132.674 713.839 139.029 716.352 154.346C716.352 154.346 713.175 158.7 708.7 159.984C708.584 160.018 708.464 160.047 708.345 160.076C709.123 173.057 713.901 194.657 712.18 207.153C710.526 219.167 685.251 216.094 680.241 214.98C676.807 214.218 674.151 210.592 672.253 204.131C671.625 208.647 670.217 213.941 667.059 214.269C661.891 214.804 659.753 213.911 659.13 211.953C658.951 211.388 658.897 210.6 658.949 209.614C659.285 202.867 664.418 186.967 666.682 172.157Z" fill="#7C7C93"/>
<path d="M676.387 318.138C680.299 333.701 686.189 345.633 686.189 345.633L691.317 345.278C691.317 345.278 688.802 333.314 688.947 317.149C687.207 318.026 683.615 318.916 676.387 318.138Z" fill="#D9935C"/>
<path d="M683.236 349.934H686.51C687.607 349.761 688.416 349.444 689.541 349.297C691.25 349.073 692.035 349.773 692.192 349.934C692.213 349.954 692.222 349.967 692.222 349.967H706.13C706.479 349.467 706.144 348.31 705.815 347.458C705.593 346.879 705.11 346.44 704.512 346.268C703.038 345.841 700.13 345.461 697.468 343.05C695.97 341.697 690.234 338.073 690.234 338.073L690.204 338.066C690.078 338.068 689.478 338.253 686.869 340.455C685.52 341.591 683.222 338.85 683.222 338.85C683.222 338.85 682.79 339.207 682.469 339.872C682.209 340.397 682.02 341.118 682.169 342.007C682.377 343.26 681.708 345.588 681.173 347.164C680.85 348.118 680.576 348.795 680.576 348.795C680.576 348.795 680.42 349.581 683.236 349.934Z" fill="#363647"/>
<path d="M665.765 349.934H669.039C670.136 349.761 670.945 349.444 672.07 349.297C673.779 349.073 674.564 349.773 674.721 349.934C674.742 349.954 674.751 349.967 674.751 349.967H688.659C689.009 349.467 688.673 348.31 688.343 347.458C688.122 346.879 687.639 346.44 687.041 346.268C685.567 345.841 682.659 345.461 679.997 343.05C678.499 341.697 672.763 338.073 672.763 338.073L672.733 338.066C672.607 338.068 672.007 338.253 669.398 340.455C668.05 341.591 665.751 338.85 665.751 338.85C665.751 338.85 665.32 339.207 664.997 339.872C664.739 340.397 664.55 341.118 664.699 342.007C664.906 343.26 664.237 345.588 663.702 347.164C663.378 348.118 663.105 348.795 663.105 348.795C663.105 348.795 662.949 349.581 665.765 349.934Z" fill="#363647"/>
<path d="M658.951 209.615C662.422 208.455 666.877 205.371 672.227 198.458C686.39 180.153 673.429 158.641 671.692 158.24C669.955 157.84 666.684 172.158 666.684 172.158C664.421 186.968 659.288 202.867 658.951 209.615Z" fill="#5C5A72"/>
<path d="M740.166 143.122C740.166 143.122 737.894 141.061 736.039 143.01C734.183 144.959 736.741 148.442 738.613 149.271C740.484 150.101 741.106 150.571 741.106 150.571L740.166 143.122Z" fill="#FFB27D"/>
<path d="M692.977 112.575C692.977 112.575 693.246 113.717 696.085 113.541C696.085 113.541 698.47 113.394 698.397 112.139C698.397 112.139 696.085 111.246 692.977 112.575Z" fill="white"/>
<path d="M318.391 232.816H242.569C239.765 232.816 237.492 230.543 237.492 227.739V180.825C237.492 178.021 239.765 175.748 242.569 175.748H318.391C321.195 175.748 323.468 178.021 323.468 180.825V227.739C323.468 230.543 321.195 232.816 318.391 232.816Z" fill="#2A2B3A"/>
<path d="M265.726 160.055C257.925 161.029 252.392 168.143 253.367 175.943C254.342 183.742 261.455 189.275 269.255 188.3C277.055 187.326 282.588 180.212 281.613 172.413C280.639 164.613 273.525 159.08 265.726 160.055Z" fill="#2A2B3A"/>
<path d="M264.495 160.209C256.695 161.183 251.162 168.296 252.137 176.096C253.111 183.896 260.224 189.429 268.024 188.454C275.824 187.48 281.357 180.366 280.382 172.566C279.408 164.767 272.294 159.234 264.495 160.209Z" fill="white"/>
<path d="M267.889 187.365C260.795 188.252 254.3 183.2 253.413 176.106C252.527 169.011 257.579 162.518 264.674 161.632C271.768 160.745 278.261 165.795 279.147 172.89C280.034 179.985 274.984 186.479 267.889 187.365ZM264.769 162.399C258.097 163.232 253.346 169.338 254.18 176.01C255.014 182.682 261.122 187.433 267.794 186.599C274.466 185.765 279.215 179.658 278.381 172.986C277.547 166.314 271.441 161.565 264.769 162.399Z" fill="#19AD1C"/>
<path d="M284.239 169.512C276.439 170.487 270.906 177.6 271.881 185.4C272.856 193.2 279.969 198.733 287.769 197.758C295.569 196.783 301.102 189.67 300.127 181.87C299.152 174.07 292.039 168.538 284.239 169.512Z" fill="#2A2B3A"/>
<path d="M283.006 169.666C275.206 170.641 269.673 177.754 270.649 185.554C271.623 193.354 278.736 198.886 286.536 197.911C294.336 196.937 299.869 189.824 298.894 182.024C297.919 174.224 290.806 168.691 283.006 169.666Z" fill="white"/>
<path d="M286.401 196.822C279.306 197.709 272.812 192.657 271.925 185.563C271.039 178.468 276.091 171.975 283.185 171.089C290.28 170.202 296.772 175.252 297.659 182.347C298.545 189.442 293.496 195.936 286.401 196.822ZM283.281 171.856C276.609 172.689 271.858 178.795 272.692 185.467C273.526 192.139 279.633 196.89 286.306 196.056C292.977 195.222 297.726 189.115 296.892 182.443C296.059 175.771 289.953 171.022 283.281 171.856Z" fill="#19AD1C"/>
<path d="M312.771 237.278H242.569C239.765 237.278 237.492 235.005 237.492 232.201V185.287C237.492 182.484 239.765 180.21 242.569 180.21H312.771C315.575 180.21 317.848 182.484 317.848 185.287V232.201C317.848 235.005 315.575 237.278 312.771 237.278Z" fill="#63637F"/>
<path d="M320.236 216.541H295.301C290.995 216.541 287.504 213.05 287.504 208.744C287.504 204.438 290.995 200.947 295.301 200.947H320.236V216.541Z" fill="#52526C"/>
<path d="M301.412 208.744C301.412 212.119 298.675 214.855 295.301 214.855C291.926 214.855 289.189 212.119 289.189 208.744C289.189 205.369 291.926 202.633 295.301 202.633C298.675 202.633 301.412 205.369 301.412 208.744Z" fill="#73739A"/>
<path d="M529.74 227.069C519.409 227.069 511.035 235.443 511.035 245.773C511.035 256.103 519.409 264.477 529.74 264.477C540.07 264.477 548.444 256.103 548.444 245.773C548.444 235.443 540.07 227.069 529.74 227.069ZM540.637 240.895L528.361 253.171C528.027 253.505 527.573 253.693 527.101 253.693H526.21C525.738 253.693 525.285 253.505 524.95 253.171L518.842 247.062C517.726 245.946 518.505 244.038 520.083 244.021C520.562 244.016 521.022 244.204 521.362 244.543L524.994 248.176C525.684 248.865 526.801 248.872 527.499 248.19L537.554 238.361C537.887 238.036 538.334 237.854 538.799 237.854H539.377C540.964 237.854 541.759 239.773 540.637 240.895Z" fill="#63637F"/>
<path d="M168.784 145.689C168.25 145.757 167.72 145.823 167.195 145.886C166.595 145.959 166.05 145.532 165.977 144.931C165.905 144.334 166.328 143.791 166.925 143.714L166.932 143.713C167.877 143.598 168.838 143.476 169.815 143.346L169.822 143.345C170.418 143.268 170.966 143.688 171.046 144.286C171.126 144.885 170.705 145.436 170.105 145.516C169.662 145.575 169.221 145.633 168.784 145.689ZM172.994 145.114C172.402 145.189 171.857 144.777 171.772 144.185C171.685 143.586 172.1 143.031 172.698 142.944C173.645 142.808 174.605 142.663 175.577 142.513C176.184 142.418 176.735 142.83 176.827 143.428C176.919 144.025 176.51 144.585 175.912 144.677C174.932 144.829 173.965 144.973 173.012 145.111C173.006 145.112 172.999 145.113 172.994 145.114ZM164.303 146.216C164.295 146.217 164.287 146.218 164.279 146.219C163.286 146.325 162.303 146.421 161.356 146.507C160.754 146.56 160.222 146.116 160.168 145.514C160.113 144.912 160.562 144.386 161.16 144.326C162.095 144.242 163.066 144.146 164.047 144.042C164.648 143.978 165.187 144.414 165.252 145.014C165.315 145.608 164.892 146.14 164.303 146.216ZM178.769 144.222C178.187 144.296 177.646 143.897 177.551 143.313C177.453 142.716 177.858 142.153 178.454 142.056C179.401 141.901 180.359 141.74 181.328 141.575C181.915 141.472 182.49 141.872 182.591 142.468C182.694 143.064 182.293 143.631 181.698 143.733C180.724 143.899 179.76 144.061 178.808 144.217C178.794 144.219 178.782 144.22 178.769 144.222ZM158.488 146.735C158.467 146.738 158.445 146.74 158.424 146.742C157.416 146.812 156.427 146.87 155.484 146.914C154.88 146.941 154.368 146.474 154.339 145.87C154.312 145.267 154.779 144.756 155.383 144.727C156.308 144.684 157.28 144.627 158.271 144.558C158.874 144.516 159.398 144.97 159.44 145.573C159.48 146.155 159.059 146.662 158.488 146.735ZM184.529 143.235C183.954 143.309 183.416 142.919 183.313 142.342C183.207 141.747 183.603 141.178 184.198 141.072C185.145 140.902 186.101 140.728 187.065 140.549C187.661 140.437 188.231 140.831 188.342 141.425C188.452 142.02 188.06 142.591 187.465 142.701C186.495 142.881 185.535 143.057 184.583 143.227C184.565 143.23 184.547 143.233 184.529 143.235ZM152.656 146.999C152.616 147.004 152.575 147.007 152.533 147.007C151.508 147.024 150.511 147.022 149.572 147.002C148.968 146.988 148.488 146.487 148.502 145.883C148.515 145.279 149.015 144.799 149.62 144.813C150.532 144.833 151.499 144.835 152.497 144.818C153.102 144.808 153.6 145.29 153.61 145.895C153.619 146.458 153.202 146.928 152.656 146.999ZM190.274 142.17C189.706 142.243 189.171 141.861 189.062 141.29C188.948 140.696 189.337 140.122 189.93 140.009C190.876 139.827 191.831 139.642 192.792 139.452C193.391 139.334 193.961 139.721 194.078 140.314C194.195 140.907 193.81 141.482 193.216 141.599C192.251 141.79 191.293 141.976 190.343 142.159C190.32 142.164 190.297 142.167 190.274 142.17ZM196.007 141.038C195.443 141.11 194.911 140.736 194.796 140.17C194.676 139.577 195.059 139 195.652 138.88C196.597 138.687 197.55 138.492 198.508 138.294C199.105 138.169 199.68 138.551 199.803 139.143C199.925 139.734 199.545 140.314 198.954 140.437C197.991 140.637 197.035 140.833 196.087 141.026C196.06 141.03 196.034 141.035 196.007 141.038ZM201.728 139.85C201.169 139.922 200.639 139.553 200.519 138.992C200.394 138.401 200.771 137.819 201.363 137.694C202.308 137.493 203.259 137.289 204.215 137.082C204.801 136.953 205.388 137.329 205.516 137.92C205.644 138.511 205.269 139.094 204.678 139.222C203.719 139.429 202.765 139.633 201.817 139.836C201.788 139.841 201.758 139.846 201.728 139.85ZM146.821 146.857C146.749 146.866 146.675 146.869 146.6 146.863C145.541 146.785 144.537 146.675 143.617 146.538C143.019 146.448 142.607 145.891 142.697 145.293C142.786 144.695 143.343 144.283 143.941 144.373C144.808 144.503 145.757 144.605 146.761 144.68C147.364 144.724 147.816 145.249 147.772 145.852C147.733 146.38 147.326 146.793 146.821 146.857ZM207.438 138.613C206.883 138.684 206.355 138.321 206.232 137.763C206.101 137.173 206.474 136.588 207.065 136.459C208.009 136.249 208.958 136.039 209.912 135.824C210.504 135.691 211.088 136.063 211.22 136.653C211.352 137.242 210.982 137.828 210.392 137.96C209.436 138.175 208.484 138.387 207.537 138.596C207.504 138.603 207.471 138.609 207.438 138.613ZM213.139 137.333C212.586 137.403 212.06 137.045 211.934 136.491C211.799 135.901 212.168 135.314 212.757 135.18C213.701 134.964 214.649 134.746 215.601 134.525C216.191 134.388 216.778 134.756 216.914 135.344C217.051 135.933 216.684 136.522 216.095 136.658C215.141 136.879 214.191 137.098 213.245 137.314C213.209 137.322 213.174 137.328 213.139 137.333ZM218.831 136.014C218.281 136.084 217.757 135.729 217.627 135.178C217.489 134.59 217.854 134 218.442 133.862C219.386 133.641 220.332 133.416 221.282 133.19C221.871 133.05 222.46 133.413 222.6 134.002C222.74 134.59 222.377 135.18 221.789 135.32C220.837 135.547 219.888 135.772 218.943 135.993C218.906 136.002 218.868 136.009 218.831 136.014ZM141.061 145.953C140.921 145.971 140.776 145.962 140.632 145.923C139.512 145.614 138.521 145.235 137.69 144.794C137.156 144.511 136.953 143.848 137.236 143.314C137.52 142.78 138.182 142.577 138.716 142.86C139.406 143.226 140.246 143.546 141.212 143.811C141.795 143.972 142.138 144.574 141.978 145.157C141.857 145.596 141.486 145.899 141.061 145.953ZM224.514 134.66C223.967 134.73 223.444 134.379 223.312 133.831C223.17 133.243 223.532 132.651 224.119 132.51C225.062 132.282 226.007 132.053 226.956 131.822C227.542 131.677 228.136 132.039 228.279 132.626C228.422 133.213 228.062 133.805 227.475 133.948C226.524 134.18 225.578 134.41 224.633 134.638C224.593 134.648 224.554 134.655 224.514 134.66ZM230.19 133.275C229.646 133.345 229.124 132.997 228.989 132.451C228.845 131.865 229.203 131.271 229.79 131.126C230.732 130.893 231.676 130.659 232.623 130.423C233.208 130.278 233.803 130.635 233.949 131.221C234.096 131.808 233.739 132.402 233.152 132.548C232.204 132.784 231.258 133.018 230.314 133.252C230.273 133.262 230.231 133.27 230.19 133.275ZM235.858 131.861C235.316 131.931 234.796 131.586 234.659 131.043C234.511 130.457 234.867 129.862 235.454 129.713C236.395 129.476 237.338 129.238 238.283 128.998C238.87 128.849 239.465 129.203 239.614 129.788C239.762 130.375 239.408 130.97 238.822 131.119C237.876 131.36 236.931 131.599 235.988 131.837C235.945 131.848 235.902 131.856 235.858 131.861ZM241.52 130.421C240.98 130.49 240.461 130.149 240.322 129.607C240.172 129.022 240.525 128.425 241.111 128.275C242.051 128.033 242.994 127.79 243.937 127.547C244.523 127.395 245.12 127.747 245.271 128.332C245.423 128.917 245.071 129.514 244.485 129.666C243.541 129.91 242.597 130.154 241.655 130.395C241.61 130.407 241.565 130.416 241.52 130.421ZM247.168 128.96C246.63 129.028 246.111 128.689 245.971 128.15C245.818 127.565 246.169 126.967 246.754 126.814C247.693 126.569 248.632 126.323 249.572 126.075C250.158 125.923 250.756 126.271 250.909 126.855C251.063 127.44 250.714 128.039 250.129 128.193C249.188 128.44 248.247 128.687 247.306 128.933C247.26 128.945 247.214 128.954 247.168 128.96ZM136.116 143.077C135.732 143.126 135.333 142.969 135.09 142.634C135.025 142.545 134.963 142.454 134.905 142.363C134.366 141.518 133.923 140.664 133.591 139.821C133.369 139.259 133.645 138.623 134.207 138.401C134.769 138.179 135.405 138.455 135.627 139.017C135.908 139.728 136.286 140.458 136.75 141.184C136.786 141.239 136.823 141.294 136.862 141.348C137.217 141.837 137.108 142.522 136.618 142.877C136.465 142.988 136.292 143.054 136.116 143.077ZM252.811 127.475C252.275 127.543 251.758 127.206 251.616 126.669C251.461 126.084 251.809 125.486 252.393 125.331C253.334 125.081 254.275 124.83 255.216 124.579C255.803 124.423 256.4 124.77 256.556 125.355C256.713 125.938 256.365 126.538 255.781 126.694C254.839 126.946 253.896 127.197 252.954 127.447C252.906 127.459 252.859 127.469 252.811 127.475ZM258.464 125.965C257.93 126.034 257.413 125.698 257.269 125.163C257.112 124.579 257.458 123.979 258.042 123.822C258.985 123.568 259.928 123.314 260.87 123.058C261.456 122.9 262.055 123.246 262.213 123.829C262.371 124.412 262.026 125.014 261.442 125.172C260.499 125.427 259.555 125.682 258.611 125.936C258.562 125.949 258.513 125.959 258.464 125.965ZM264.112 124.435C263.58 124.504 263.064 124.17 262.919 123.637C262.76 123.054 263.103 122.452 263.687 122.293C264.626 122.037 265.565 121.78 266.503 121.523C267.086 121.363 267.688 121.706 267.848 122.289C268.008 122.872 267.665 123.474 267.082 123.634C266.143 123.892 265.203 124.149 264.263 124.405C264.213 124.419 264.162 124.429 264.112 124.435ZM269.746 122.89C269.215 122.958 268.7 122.627 268.553 122.095C268.393 121.512 268.735 120.909 269.318 120.748C270.256 120.49 271.195 120.23 272.131 119.97C272.714 119.809 273.317 120.149 273.479 120.732C273.64 121.314 273.299 121.918 272.716 122.079C271.779 122.339 270.84 122.599 269.9 122.859C269.849 122.873 269.798 122.883 269.746 122.89ZM275.376 121.327C274.845 121.395 274.332 121.065 274.184 120.535C274.021 119.953 274.362 119.349 274.944 119.187C275.882 118.925 276.819 118.662 277.755 118.399C278.335 118.235 278.941 118.576 279.105 119.158C279.268 119.74 278.929 120.344 278.346 120.507C277.41 120.77 276.472 121.033 275.532 121.295C275.48 121.31 275.428 121.32 275.376 121.327ZM281.001 119.748C280.471 119.816 279.958 119.488 279.809 118.959C279.645 118.377 279.983 117.772 280.565 117.608C281.504 117.344 282.44 117.078 283.375 116.813C283.956 116.647 284.561 116.986 284.726 117.567C284.892 118.149 284.554 118.754 283.972 118.919C283.037 119.184 282.1 119.45 281.16 119.715C281.107 119.73 281.054 119.741 281.001 119.748ZM286.621 118.153C286.093 118.221 285.581 117.895 285.43 117.367C285.264 116.786 285.602 116.18 286.183 116.014C287.121 115.747 288.057 115.479 288.99 115.212C289.569 115.046 290.177 115.381 290.344 115.963C290.51 116.544 290.174 117.15 289.594 117.316C288.659 117.584 287.722 117.852 286.783 118.12C286.729 118.135 286.674 118.146 286.621 118.153ZM134.059 137.679C134.045 137.681 134.032 137.682 134.019 137.683C133.416 137.738 132.884 137.295 132.829 136.693C132.731 135.618 132.805 134.536 133.049 133.479C133.185 132.89 133.772 132.523 134.361 132.659C134.95 132.795 135.318 133.382 135.182 133.971C134.991 134.802 134.933 135.65 135.009 136.494C135.063 137.083 134.64 137.604 134.059 137.679ZM292.237 116.543C291.71 116.611 291.199 116.286 291.047 115.761C290.88 115.18 291.215 114.573 291.796 114.406C292.734 114.135 293.67 113.866 294.602 113.596C295.185 113.428 295.789 113.763 295.957 114.343C296.125 114.924 295.79 115.531 295.21 115.699C294.277 115.969 293.341 116.239 292.402 116.509C292.347 116.525 292.292 116.536 292.237 116.543ZM297.849 114.919C297.324 114.987 296.813 114.664 296.66 114.139C296.492 113.559 296.825 112.951 297.406 112.783C298.344 112.51 299.279 112.238 300.21 111.966C300.79 111.796 301.398 112.129 301.567 112.71C301.736 113.29 301.403 113.898 300.823 114.067C299.891 114.339 298.956 114.612 298.017 114.885C297.961 114.901 297.905 114.913 297.849 114.919ZM303.458 113.282C302.933 113.349 302.423 113.027 302.269 112.504C302.099 111.924 302.432 111.316 303.012 111.146C303.95 110.871 304.884 110.596 305.813 110.322C306.396 110.152 307.002 110.483 307.173 111.063C307.344 111.643 307.012 112.252 306.432 112.422C305.502 112.697 304.567 112.971 303.628 113.247C303.571 113.263 303.514 113.275 303.458 113.282ZM309.062 111.632C308.539 111.699 308.029 111.378 307.875 110.856C307.704 110.276 308.034 109.667 308.614 109.496C309.552 109.219 310.486 108.942 311.414 108.666C311.994 108.494 312.603 108.824 312.775 109.404C312.947 109.983 312.617 110.593 312.037 110.765C311.108 111.041 310.174 111.317 309.235 111.595C309.178 111.612 309.12 111.624 309.062 111.632ZM314.664 109.968C314.141 110.035 313.632 109.716 313.477 109.195C313.304 108.616 313.634 108.006 314.213 107.833C315.152 107.554 316.085 107.275 317.012 106.998C317.59 106.824 318.201 107.153 318.374 107.733C318.547 108.312 318.219 108.922 317.639 109.095C316.712 109.373 315.778 109.651 314.839 109.931C314.781 109.949 314.722 109.961 314.664 109.968ZM135.294 132.123C135.073 132.151 134.841 132.113 134.631 131.998C134.1 131.707 133.905 131.042 134.195 130.512C134.666 129.65 135.263 128.787 135.969 127.947C136.358 127.484 137.048 127.424 137.511 127.813C137.974 128.201 138.034 128.892 137.645 129.355C137.032 130.085 136.518 130.827 136.116 131.562C135.942 131.881 135.63 132.08 135.294 132.123ZM320.262 108.293C319.74 108.36 319.232 108.042 319.075 107.522C318.902 106.943 319.23 106.333 319.809 106.158C320.748 105.876 321.68 105.596 322.605 105.317C323.184 105.142 323.794 105.47 323.969 106.048C324.144 106.627 323.816 107.238 323.237 107.413C322.311 107.692 321.379 107.973 320.439 108.255C320.38 108.273 320.32 108.285 320.262 108.293ZM325.856 106.605C325.335 106.672 324.827 106.356 324.67 105.836C324.495 105.257 324.822 104.647 325.401 104.472C326.341 104.187 327.272 103.904 328.196 103.624C328.773 103.449 329.385 103.774 329.561 104.353C329.737 104.931 329.411 105.543 328.833 105.719C327.909 106 326.976 106.282 326.035 106.567C325.976 106.585 325.915 106.598 325.856 106.605ZM331.447 104.906C330.928 104.973 330.42 104.657 330.262 104.139C330.086 103.561 330.412 102.949 330.99 102.773C331.931 102.486 332.862 102.201 333.783 101.919C334.36 101.743 334.973 102.067 335.15 102.645C335.327 103.224 335.003 103.835 334.424 104.012C333.502 104.295 332.57 104.579 331.628 104.867C331.568 104.885 331.507 104.898 331.447 104.906ZM337.035 103.195C336.517 103.261 336.01 102.947 335.851 102.43C335.673 101.852 335.998 101.24 336.576 101.062C337.518 100.773 338.449 100.486 339.368 100.203C339.946 100.025 340.559 100.349 340.737 100.926C340.915 101.504 340.591 102.117 340.013 102.295C339.094 102.579 338.162 102.865 337.219 103.155C337.158 103.174 337.096 103.187 337.035 103.195ZM138.979 127.65C138.635 127.694 138.276 127.574 138.026 127.297C137.621 126.848 137.657 126.156 138.107 125.751C138.815 125.113 139.606 124.471 140.457 123.844C140.944 123.486 141.629 123.59 141.988 124.076C142.346 124.564 142.242 125.249 141.756 125.607C140.962 126.191 140.227 126.787 139.572 127.377C139.401 127.532 139.193 127.623 138.979 127.65ZM342.62 101.473C342.103 101.539 341.596 101.226 341.437 100.709C341.258 100.132 341.582 99.5197 342.159 99.3404C343.103 99.0484 344.034 98.7596 344.949 98.4756C345.525 98.2972 346.14 98.6182 346.319 99.1956C346.499 99.7736 346.176 100.387 345.599 100.566C344.682 100.851 343.751 101.14 342.806 101.432C342.745 101.451 342.682 101.464 342.62 101.473ZM348.203 99.7385C347.686 99.8043 347.181 99.4932 347.02 98.9783C346.84 98.4009 347.162 97.7869 347.739 97.6071C348.687 97.3116 349.616 97.0216 350.528 96.7364C351.107 96.5556 351.72 96.8768 351.9 97.4542C352.081 98.0313 351.759 98.6453 351.182 98.826C350.27 99.1114 349.339 99.4019 348.391 99.6974C348.328 99.7166 348.266 99.7303 348.203 99.7385ZM353.782 97.9926C353.266 98.0592 352.761 97.7481 352.6 97.2345C352.419 96.658 352.74 96.0434 353.317 95.8626C354.268 95.5634 355.198 95.2709 356.105 94.9854C356.68 94.8033 357.296 95.1237 357.478 95.7004C357.66 96.277 357.339 96.8921 356.763 97.0736C355.856 97.3596 354.925 97.6524 353.972 97.9516C353.909 97.9706 353.846 97.9846 353.782 97.9926ZM143.664 124.17C143.254 124.223 142.832 124.04 142.598 123.667C142.275 123.155 142.43 122.479 142.942 122.157C143.747 121.651 144.613 121.142 145.514 120.644C146.044 120.351 146.71 120.543 147.002 121.072C147.295 121.602 147.102 122.268 146.573 122.56C145.708 123.038 144.878 123.526 144.107 124.011C143.968 124.098 143.817 124.151 143.664 124.17ZM359.36 96.2352C358.845 96.3009 358.341 95.9915 358.179 95.4791C357.996 94.9028 358.316 94.2875 358.892 94.1052C359.852 93.8017 360.781 93.5072 361.679 93.2221C362.255 93.0392 362.871 93.358 363.054 93.934C363.237 94.51 362.918 95.1258 362.342 95.3088C361.443 95.5942 360.513 95.889 359.552 96.1927C359.489 96.2129 359.424 96.2269 359.36 96.2352ZM364.936 94.4645C364.422 94.5302 363.919 94.2223 363.756 93.7109C363.572 93.1349 363.89 92.5188 364.466 92.3353C365.441 92.0243 366.37 91.7272 367.252 91.4455C367.829 91.2612 368.444 91.5787 368.629 92.1544C368.813 92.7298 368.496 93.3463 367.92 93.5303C367.037 93.8132 366.107 94.1101 365.131 94.4213C365.066 94.4423 365.001 94.4563 364.936 94.4645ZM148.775 121.334C148.325 121.392 147.868 121.163 147.655 120.733C147.387 120.191 147.609 119.535 148.15 119.266C149.005 118.844 149.907 118.418 150.832 118.002C151.384 117.754 152.032 118 152.28 118.551C152.528 119.102 152.282 119.751 151.731 119.999C150.83 120.404 149.952 120.818 149.122 121.229C149.01 121.284 148.893 121.319 148.775 121.334ZM370.513 92.6792C369.999 92.745 369.496 92.4385 369.332 91.9284C369.148 91.3528 369.464 90.7363 370.04 90.5515C371.057 90.2242 371.988 89.9244 372.828 89.6524C373.403 89.467 374.02 89.7819 374.206 90.3576C374.392 90.9327 374.076 91.5501 373.501 91.7354C372.66 92.0079 371.728 92.308 370.71 92.6354C370.644 92.6565 370.578 92.6711 370.513 92.6792ZM376.096 90.8749C375.584 90.9401 375.082 90.6355 374.917 90.1271C374.73 89.5521 375.045 88.9345 375.619 88.7476C377.342 88.1879 378.261 87.8851 378.261 87.8851C378.833 87.6966 379.454 88.0082 379.643 88.5833C379.832 89.1571 379.52 89.7757 378.945 89.9648C378.945 89.9648 378.024 90.2677 376.296 90.8296C376.23 90.8516 376.163 90.8661 376.096 90.8749ZM154.107 118.929C153.628 118.99 153.149 118.728 152.956 118.26C152.725 117.702 152.991 117.061 153.55 116.83C154.433 116.466 155.357 116.099 156.295 115.74C156.861 115.525 157.494 115.807 157.709 116.371C157.925 116.936 157.643 117.569 157.078 117.785C156.157 118.137 155.252 118.497 154.386 118.854C154.294 118.892 154.2 118.917 154.107 118.929ZM159.569 116.836C159.07 116.899 158.576 116.61 158.4 116.117C158.197 115.547 158.494 114.921 159.064 114.718C159.967 114.396 160.905 114.073 161.852 113.757C162.427 113.564 163.045 113.875 163.237 114.449C163.428 115.023 163.118 115.642 162.545 115.834C161.612 116.145 160.688 116.463 159.799 116.78C159.723 116.807 159.646 116.825 159.569 116.836ZM165.12 114.981C164.604 115.048 164.099 114.737 163.938 114.223C163.757 113.646 164.078 113.032 164.655 112.85C165.57 112.563 166.518 112.275 167.471 111.993C168.051 111.822 168.66 112.153 168.831 112.732C169.003 113.312 168.672 113.921 168.092 114.092C167.15 114.371 166.214 114.656 165.31 114.94C165.247 114.96 165.183 114.974 165.12 114.981ZM170.732 113.32C170.201 113.388 169.688 113.059 169.54 112.529C169.377 111.947 169.718 111.343 170.3 111.18C171.234 110.919 172.189 110.66 173.14 110.408C173.725 110.254 174.323 110.602 174.477 111.187C174.632 111.772 174.283 112.371 173.699 112.525C172.759 112.774 171.813 113.031 170.889 113.288C170.836 113.303 170.784 113.314 170.732 113.32ZM176.392 111.824C175.85 111.893 175.329 111.547 175.193 111.003C175.046 110.417 175.402 109.822 175.989 109.675C176.929 109.44 177.891 109.206 178.847 108.979C179.436 108.841 180.026 109.204 180.165 109.792C180.305 110.381 179.941 110.97 179.352 111.11C178.404 111.334 177.452 111.567 176.52 111.8C176.477 111.81 176.435 111.818 176.392 111.824ZM182.093 110.473C181.539 110.544 181.012 110.183 180.887 109.626C180.755 109.037 181.126 108.451 181.716 108.319C182.675 108.104 183.643 107.894 184.594 107.693C185.186 107.567 185.766 107.947 185.89 108.538C186.015 109.13 185.637 109.711 185.045 109.836C184.104 110.034 183.144 110.242 182.194 110.455C182.161 110.463 182.127 110.469 182.093 110.473ZM187.832 109.264C187.265 109.337 186.731 108.958 186.62 108.39C186.503 107.797 186.89 107.221 187.483 107.105C189.31 106.746 190.364 106.565 190.408 106.558C190.996 106.454 191.569 106.856 191.671 107.453C191.773 108.048 191.373 108.614 190.776 108.715C190.766 108.718 189.702 108.9 187.905 109.253C187.88 109.258 187.856 109.261 187.832 109.264Z" fill="#63637F"/>
<path d="M391.489 105.605L429.636 77.0273L392.397 84.0492L396.105 90.0165L389.453 99.5952L391.489 105.605Z" fill="#363647"/>
<path d="M429.636 77.0273L387.545 90.4458L358.943 116.269L429.636 77.0273Z" fill="white"/>
<path d="M392.397 84.0489L429.636 77.0271L388.914 70.5508L392.397 84.0489Z" fill="white"/>
<path d="M318.943 281.282C318.578 281.078 318.091 280.977 317.48 280.977H315.148V284.031H317.48C318.091 284.031 318.578 283.924 318.943 283.71C319.307 283.495 319.489 283.088 319.489 282.488C319.489 281.887 319.307 281.486 318.943 281.282Z" fill="#63637F"/>
<path d="M262.996 286.024H266.533L264.764 281.442L262.996 286.024Z" fill="#63637F"/>
<path d="M255.554 281.282C255.19 281.078 254.702 280.977 254.091 280.977H251.76V284.031H254.091C254.702 284.031 255.19 283.924 255.554 283.71C255.918 283.495 256.1 283.088 256.1 282.488C256.1 281.887 255.918 281.486 255.554 281.282Z" fill="#63637F"/>
<path d="M326.941 272.141H234.019C231.665 272.141 229.758 274.048 229.758 276.401V292.787C229.758 295.14 231.665 297.047 234.019 297.047H326.941C329.294 297.047 331.202 295.14 331.202 292.787V276.401C331.202 274.048 329.294 272.141 326.941 272.141ZM247.981 280.543C247.981 280.661 247.938 280.762 247.852 280.848C247.766 280.934 247.665 280.977 247.547 280.977H244.653V289.787C244.653 289.905 244.61 290.006 244.525 290.092C244.439 290.178 244.337 290.221 244.219 290.221H242.917C242.799 290.221 242.697 290.178 242.611 290.092C242.525 290.006 242.483 289.905 242.483 289.787V280.977H239.589C239.471 280.977 239.369 280.934 239.283 280.848C239.198 280.762 239.155 280.661 239.155 280.543V279.401C239.155 279.283 239.198 279.182 239.283 279.096C239.369 279.01 239.471 278.967 239.589 278.967H247.547C247.665 278.967 247.766 279.01 247.852 279.096C247.938 279.182 247.981 279.283 247.981 279.401V280.543ZM258.31 290.116C258.24 290.186 258.157 290.221 258.061 290.221H256.694C256.48 290.221 256.322 290.17 256.22 290.068C256.118 289.966 256.046 289.873 256.003 289.787L253.897 286.041H251.759V289.787C251.759 289.905 251.716 290.006 251.63 290.092C251.544 290.178 251.442 290.221 251.325 290.221H250.022C249.904 290.221 249.803 290.178 249.717 290.092C249.631 290.006 249.588 289.905 249.588 289.787V279.401C249.588 279.283 249.631 279.182 249.717 279.096C249.803 279.01 249.904 278.967 250.022 278.967H254.17C255.51 278.967 256.528 279.278 257.225 279.9C257.921 280.521 258.27 281.384 258.27 282.488C258.27 283.27 258.09 283.938 257.731 284.49C257.372 285.042 256.844 285.451 256.148 285.72L258.366 289.69C258.399 289.755 258.415 289.814 258.415 289.867C258.415 289.964 258.379 290.047 258.31 290.116ZM270.086 290.092C270 290.178 269.898 290.221 269.781 290.221H268.623C268.409 290.221 268.259 290.175 268.173 290.084C268.087 289.993 268.028 289.905 267.996 289.819L267.305 288.034H262.225L261.533 289.819C261.501 289.905 261.442 289.993 261.357 290.084C261.271 290.175 261.121 290.221 260.906 290.221H259.749C259.631 290.221 259.529 290.178 259.443 290.092C259.357 290.006 259.315 289.905 259.315 289.787C259.315 289.744 259.32 289.706 259.331 289.674L263.27 279.514C263.334 279.331 263.409 279.195 263.495 279.104C263.58 279.013 263.709 278.967 263.881 278.967H265.649C265.82 278.967 265.949 279.013 266.035 279.104C266.121 279.195 266.196 279.331 266.26 279.514L270.199 289.674C270.209 289.706 270.215 289.744 270.215 289.787C270.215 289.905 270.172 290.006 270.086 290.092ZM280.536 289.787C280.536 289.905 280.493 290.006 280.407 290.092C280.322 290.178 280.22 290.221 280.102 290.221H278.977C278.794 290.221 278.655 290.173 278.559 290.076C278.462 289.98 278.393 289.905 278.35 289.851L273.848 283.163V289.787C273.848 289.905 273.805 290.006 273.72 290.092C273.634 290.178 273.532 290.221 273.414 290.221H272.112C271.994 290.221 271.892 290.178 271.806 290.092C271.72 290.006 271.678 289.905 271.678 289.787V279.401C271.678 279.283 271.72 279.182 271.806 279.096C271.892 279.01 271.994 278.967 272.112 278.967H273.237C273.419 278.967 273.559 279.015 273.655 279.112C273.752 279.208 273.821 279.283 273.865 279.337L278.366 286.025V279.401C278.366 279.283 278.408 279.182 278.494 279.096C278.58 279.01 278.682 278.967 278.8 278.967H280.102C280.22 278.967 280.322 279.01 280.407 279.096C280.493 279.182 280.536 279.283 280.536 279.401V289.787ZM291.307 288.364C291.093 288.777 290.787 289.13 290.391 289.425C289.994 289.72 289.507 289.953 288.928 290.125C288.349 290.296 287.7 290.381 286.983 290.381C286.382 290.381 285.809 290.31 285.263 290.165C284.716 290.02 284.231 289.811 283.808 289.538C283.384 289.264 283.044 288.935 282.787 288.549C282.529 288.163 282.385 287.735 282.352 287.263C282.342 287.134 282.382 287.03 282.473 286.949C282.564 286.869 282.668 286.829 282.787 286.829H283.912C284.094 286.829 284.233 286.861 284.33 286.925C284.427 286.989 284.507 287.086 284.571 287.215C284.646 287.354 284.737 287.493 284.845 287.632C284.951 287.772 285.096 287.895 285.279 288.002C285.461 288.109 285.689 288.198 285.962 288.268C286.235 288.337 286.575 288.372 286.983 288.372C287.304 288.372 287.615 288.348 287.915 288.299C288.215 288.251 288.478 288.171 288.703 288.059C288.928 287.946 289.11 287.807 289.25 287.64C289.389 287.475 289.459 287.268 289.459 287.022C289.459 286.786 289.383 286.593 289.234 286.443C289.083 286.293 288.856 286.164 288.55 286.057C288.245 285.95 287.867 285.848 287.417 285.751C286.967 285.655 286.447 285.532 285.858 285.382C285.321 285.253 284.852 285.1 284.451 284.924C284.049 284.747 283.716 284.529 283.454 284.272C283.191 284.015 282.996 283.712 282.867 283.364C282.738 283.016 282.674 282.6 282.674 282.118C282.674 281.636 282.781 281.191 282.996 280.784C283.21 280.377 283.505 280.028 283.88 279.739C284.255 279.449 284.702 279.222 285.222 279.056C285.742 278.89 286.302 278.806 286.902 278.806C287.62 278.806 288.253 278.903 288.799 279.096C289.346 279.289 289.801 279.53 290.166 279.819C290.53 280.108 290.806 280.428 290.994 280.776C291.181 281.124 291.286 281.454 291.307 281.764C291.318 281.893 291.278 281.998 291.187 282.078C291.096 282.158 290.991 282.199 290.873 282.199H289.748C289.565 282.199 289.429 282.164 289.338 282.094C289.247 282.024 289.164 281.931 289.089 281.813C288.928 281.545 288.684 281.312 288.357 281.114C288.03 280.915 287.545 280.816 286.902 280.816C286.624 280.816 286.358 280.845 286.106 280.905C285.855 280.964 285.635 281.049 285.448 281.162C285.26 281.274 285.112 281.411 285.005 281.571C284.898 281.732 284.845 281.915 284.845 282.118C284.845 282.365 284.895 282.566 284.997 282.721C285.099 282.876 285.271 283.01 285.512 283.123C285.753 283.236 286.072 283.34 286.468 283.436C286.865 283.533 287.358 283.645 287.947 283.774C288.591 283.913 289.145 284.077 289.611 284.264C290.078 284.452 290.458 284.677 290.753 284.94C291.048 285.203 291.267 285.505 291.412 285.848C291.556 286.191 291.629 286.582 291.629 287.022C291.629 287.504 291.521 287.952 291.307 288.364ZM301.195 280.543C301.195 280.661 301.151 280.762 301.066 280.848C300.98 280.934 300.878 280.977 300.76 280.977H295.632V284.096H300.439C300.557 284.096 300.659 284.139 300.744 284.224C300.83 284.31 300.873 284.412 300.873 284.529V285.671C300.873 285.789 300.83 285.891 300.744 285.977C300.659 286.062 300.557 286.105 300.439 286.105H295.632V289.787C295.632 289.905 295.589 290.006 295.503 290.092C295.417 290.178 295.316 290.221 295.198 290.221H293.896C293.778 290.221 293.676 290.178 293.59 290.092C293.504 290.006 293.462 289.905 293.462 289.787V279.401C293.462 279.283 293.504 279.182 293.59 279.096C293.676 279.01 293.778 278.967 293.896 278.967H300.76C300.878 278.967 300.98 279.01 301.066 279.096C301.151 279.182 301.195 279.283 301.195 279.401V280.543ZM310.985 289.787C310.985 289.905 310.942 290.006 310.857 290.092C310.77 290.178 310.669 290.221 310.551 290.221H303.493C303.375 290.221 303.274 290.178 303.188 290.092C303.102 290.006 303.059 289.905 303.059 289.787V279.401C303.059 279.283 303.102 279.182 303.188 279.096C303.274 279.01 303.375 278.967 303.493 278.967H310.422C310.54 278.967 310.642 279.01 310.728 279.096C310.813 279.182 310.857 279.283 310.857 279.401V280.543C310.857 280.661 310.813 280.762 310.728 280.848C310.642 280.934 310.54 280.977 310.422 280.977H305.229V283.533H310.069C310.186 283.533 310.288 283.576 310.374 283.662C310.46 283.747 310.503 283.849 310.503 283.967V285.108C310.503 285.227 310.46 285.328 310.374 285.414C310.288 285.499 310.186 285.542 310.069 285.542H305.229V288.211H310.551C310.669 288.211 310.77 288.254 310.857 288.34C310.942 288.426 310.985 288.527 310.985 288.645V289.787ZM321.7 290.116C321.63 290.186 321.548 290.221 321.451 290.221H320.084C319.87 290.221 319.712 290.17 319.61 290.068C319.508 289.966 319.436 289.873 319.393 289.787L317.287 286.041H315.149V289.787C315.149 289.905 315.106 290.006 315.02 290.092C314.934 290.178 314.833 290.221 314.715 290.221H313.412C313.294 290.221 313.193 290.178 313.107 290.092C313.021 290.006 312.978 289.905 312.978 289.787V279.401C312.978 279.283 313.021 279.182 313.107 279.096C313.193 279.01 313.294 278.967 313.412 278.967H317.56C318.9 278.967 319.918 279.278 320.615 279.9C321.312 280.521 321.66 281.384 321.66 282.488C321.66 283.27 321.48 283.938 321.121 284.49C320.762 285.042 320.234 285.451 319.538 285.72L321.756 289.69C321.788 289.755 321.805 289.814 321.805 289.867C321.805 289.964 321.77 290.047 321.7 290.116Z" fill="#63637F"/>
<path d="M73.7123 237.278C69.3422 237.268 65.7916 240.803 65.782 245.174V245.208V246.53C64.3241 246.534 63.1432 247.715 63.1387 249.173V262.39C63.1432 263.848 64.3241 265.029 65.782 265.033H81.6426C83.1005 265.029 84.2814 263.848 84.2859 262.39V249.173C84.2814 247.715 83.1005 246.534 81.6426 246.53V245.208C81.6518 240.838 78.117 237.288 73.7466 237.278H73.7123ZM73.7123 239.921C76.5708 239.86 78.9377 242.128 78.999 244.986C79.0007 245.06 79.0007 245.134 78.999 245.208V246.53H68.4257V245.208C68.3644 242.349 70.6321 239.983 73.4906 239.921C73.5645 239.919 73.6384 239.919 73.7123 239.921ZM73.7123 253.138C75.1722 253.138 76.3557 254.321 76.3557 255.782C76.3557 257.241 75.1722 258.425 73.7123 258.425C72.2525 258.425 71.069 257.241 71.069 255.782C71.0732 254.324 72.2541 253.142 73.7123 253.138Z" fill="#63637F"/>
<path d="M403.183 185.468C402.994 185.468 402.801 185.501 402.615 185.568L392.299 189.423C391.98 189.529 391.768 189.848 391.768 190.168V194.182C391.768 202.185 395.888 209.417 402.801 213.511C402.934 213.591 403.067 213.617 403.2 213.617C403.333 213.617 403.493 213.591 403.598 213.511C410.512 209.417 414.632 202.185 414.632 194.182V190.168C414.632 189.822 414.42 189.529 414.101 189.423L403.732 185.568C403.559 185.501 403.373 185.468 403.183 185.468ZM403.19 187.196C403.379 187.196 403.572 187.23 403.758 187.296L413.037 190.726V194.182C413.037 201.467 409.368 208.034 403.2 211.889C397.032 208.034 393.363 201.467 393.363 194.182V190.726L402.642 187.296C402.814 187.23 403.001 187.196 403.19 187.196ZM404.065 190.016C403.607 189.971 403.2 190.317 403.2 190.805V207.343C403.2 208.007 404.024 208.38 404.529 207.901C408.411 204.445 410.645 199.526 410.645 194.182V192.959C410.645 192.614 410.432 192.321 410.113 192.215L404.264 190.061C404.197 190.038 404.131 190.023 404.065 190.016Z" fill="#63637F"/>
<path d="M526.142 128.545C510.046 130.556 498.585 145.285 500.596 161.381C502.608 177.477 517.342 188.938 533.438 186.927C549.533 184.915 560.99 170.181 558.979 154.085C556.967 137.99 542.238 126.533 526.142 128.545ZM543.028 151.313V163.344C543.024 164.998 541.682 166.338 540.027 166.338H535.919V170.432C535.919 172.083 534.582 173.424 532.929 173.426H520.272C518.618 173.425 517.276 172.086 517.273 170.432V158.416L517.288 157.743L517.257 148.342L517.262 148.338L521.844 155.059H524.404V159.042H522.9C522.023 159.038 521.308 159.745 521.303 160.622V167.848C521.306 168.728 522.02 169.439 522.9 169.439H530.271C531.151 169.439 531.866 168.728 531.868 167.848V166.334H527.402C525.75 166.331 524.412 164.991 524.412 163.339V150.955C524.412 149.304 525.75 147.963 527.402 147.96H538.483L543.065 141.239L543.017 150.64L543.028 151.313Z" fill="white"/>
<path d="M530.273 159.049H528.44V160.757C528.432 161.619 529.118 162.329 529.98 162.352H529.868C529.922 162.361 529.977 162.364 530.031 162.363H531.869V160.63C531.864 159.752 531.15 159.045 530.273 159.049Z" fill="white"/>
<path d="M537.404 151.943H530.032C529.152 151.946 528.439 152.66 528.439 153.54V155.065H532.921C534.571 155.069 535.91 156.404 535.92 158.054V162.362H537.402L537.408 162.365C537.657 162.364 537.903 162.304 538.124 162.189C538.656 161.918 538.993 161.373 538.997 160.776V153.54C538.997 152.66 538.284 151.946 537.404 151.943Z" fill="white"/>
<path d="M563.81 153.076C561.459 134.259 544.299 120.911 525.482 123.262C506.665 125.614 493.318 142.774 495.669 161.591C498.02 180.408 515.181 193.755 533.997 191.404C552.814 189.053 566.161 171.892 563.81 153.076ZM533.67 188.776C516.554 190.915 500.887 178.728 498.748 161.612C496.609 144.496 508.796 128.834 525.912 126.695C543.027 124.556 558.69 136.739 560.829 153.854C562.967 170.97 550.785 186.637 533.67 188.776Z" fill="#E6E6E8"/>
</g>
</svg>
