<svg width="24" height="14" viewBox="0 0 24 14" fill="none" xmlns="http://www.w3.org/2000/svg">
<path d="M7 0.000244141C3.134 0.000244141 0 3.13424 0 7.00024C0 10.8662 3.134 14.0002 7 14.0002C10.1707 14.0002 12.8462 11.8912 13.707 9.00024H18V12.0002H22V9.00024H24V5.00024H13.707C12.8462 2.10926 10.1707 0.000244141 7 0.000244141ZM7 4.00024C8.657 4.00024 10 5.34324 10 7.00024C10 8.65724 8.657 10.0002 7 10.0002C5.343 10.0002 4 8.65724 4 7.00024C4 5.34324 5.343 4.00024 7 4.00024Z" fill="#A9A9CD"/>
</svg>
