<svg width="16" height="21" viewBox="0 0 16 21" fill="none" xmlns="http://www.w3.org/2000/svg">
<path d="M8 0.000244141C4.67619 0.000244141 2 2.67643 2 6.00024V7.00024C0.906937 7.00024 0 7.90718 0 9.00024V19.0002C0 20.0933 0.906937 21.0002 2 21.0002H14C15.0931 21.0002 16 20.0933 16 19.0002V9.00024C16 7.90718 15.0931 7.00024 14 7.00024V6.00024C14 2.67643 11.3238 0.000244141 8 0.000244141ZM8 2.00024C10.2762 2.00024 12 3.72405 12 6.00024V7.00024H4V6.00024C4 3.72405 5.72381 2.00024 8 2.00024ZM2 9.00024H14V19.0002H2V9.00024ZM8 12.0002C6.9 12.0002 6 12.9002 6 14.0002C6 15.1002 6.9 16.0002 8 16.0002C9.1 16.0002 10 15.1002 10 14.0002C10 12.9002 9.1 12.0002 8 12.0002Z" fill="#A9A9CD"/>
</svg>
