<svg width="18" height="20" viewBox="0 0 18 20" fill="none" xmlns="http://www.w3.org/2000/svg">
<path d="M5 0.5C2.24759 0.5 0 2.74759 0 5.5C0 7.12041 0.800412 8.53731 2 9.4502V16.75C2.00004 16.9489 2.07907 17.1396 2.21973 17.2803L4.21973 19.2803C4.36038 19.4209 4.55112 19.4999 4.75 19.4999C4.94888 19.4999 5.13962 19.4209 5.28027 19.2803L7.78027 16.7803C7.92087 16.6396 7.99986 16.4489 7.99986 16.25C7.99986 16.0511 7.92087 15.8604 7.78027 15.7197L6.81055 14.75L7.78027 13.7803C7.92087 13.6396 7.99986 13.4489 7.99986 13.25C7.99986 13.0511 7.92087 12.8604 7.78027 12.7197L6.81055 11.75L7.78027 10.7803C7.92093 10.6396 7.99996 10.4489 8 10.25V9.43457C9.19634 8.52629 10 7.11814 10 5.5C10 2.74759 7.75241 0.5 5 0.5ZM15.75 1.5C15.0625 1.5 14.4519 1.78482 14.0645 2.2207C13.677 2.65659 13.5 3.20833 13.5 3.75C13.5 4.08144 13.5756 4.4135 13.7158 4.72363L12.9395 5.5H11.75C11.6506 5.49859 11.5519 5.51696 11.4597 5.55402C11.3675 5.59108 11.2836 5.6461 11.2128 5.71588C11.142 5.78566 11.0858 5.86882 11.0474 5.96051C11.0091 6.0522 10.9893 6.15061 10.9893 6.25C10.9893 6.34939 11.0091 6.4478 11.0474 6.53949C11.0858 6.63118 11.142 6.71434 11.2128 6.78412C11.2836 6.8539 11.3675 6.90892 11.4597 6.94598C11.5519 6.98304 11.6506 7.00141 11.75 7H13.25C13.4489 6.99996 13.6396 6.92093 13.7803 6.78027L14.7715 5.78906C15.0647 5.92175 15.3961 6 15.75 6C16.4375 6 17.0481 5.71518 17.4355 5.2793C17.823 4.84341 18 4.29167 18 3.75C18 3.20833 17.823 2.65659 17.4355 2.2207C17.0481 1.78482 16.4375 1.5 15.75 1.5ZM5 2C6.94159 2 8.5 3.55841 8.5 5.5C8.5 6.7525 7.84226 7.8292 6.85254 8.44824C6.74456 8.51573 6.65555 8.60958 6.59387 8.72098C6.53219 8.83237 6.49989 8.95763 6.5 9.08496V9.93945L5.21973 11.2197C5.07913 11.3604 5.00014 11.5511 5.00014 11.75C5.00014 11.9489 5.07913 12.1396 5.21973 12.2803L6.18945 13.25L5.21973 14.2197C5.07913 14.3604 5.00014 14.5511 5.00014 14.75C5.00014 14.9489 5.07913 15.1396 5.21973 15.2803L6.18945 16.25L4.75 17.6895L3.5 16.4395V9.10059C3.49988 8.97368 3.46757 8.84888 3.40608 8.73786C3.3446 8.62685 3.25595 8.53325 3.14844 8.46582C2.15897 7.84591 1.5 6.75668 1.5 5.5C1.5 3.55841 3.05841 2 5 2ZM15.75 3C16.0625 3 16.2019 3.09018 16.3145 3.2168C16.427 3.34341 16.5 3.54167 16.5 3.75C16.5 3.95833 16.427 4.15659 16.3145 4.2832C16.2019 4.40982 16.0625 4.5 15.75 4.5C15.5515 4.5 15.4264 4.46133 15.3301 4.40234C15.2735 4.31199 15.1982 4.23476 15.1094 4.17578C15.0414 4.05684 15 3.90625 15 3.75C15 3.54167 15.073 3.34341 15.1855 3.2168C15.2981 3.09018 15.4375 3 15.75 3ZM5 3.5C4.73478 3.5 4.48043 3.60536 4.29289 3.79289C4.10536 3.98043 4 4.23478 4 4.5C4 4.76522 4.10536 5.01957 4.29289 5.20711C4.48043 5.39464 4.73478 5.5 5 5.5C5.26522 5.5 5.51957 5.39464 5.70711 5.20711C5.89464 5.01957 6 4.76522 6 4.5C6 4.23478 5.89464 3.98043 5.70711 3.79289C5.51957 3.60536 5.26522 3.5 5 3.5ZM15.75 7.75C15.0625 7.75 14.4519 8.03482 14.0645 8.4707C13.8575 8.70348 13.7189 8.97026 13.627 9.25H11.75C11.6506 9.24859 11.5519 9.26696 11.4597 9.30402C11.3675 9.34108 11.2836 9.3961 11.2128 9.46588C11.142 9.53566 11.0858 9.61882 11.0474 9.71051C11.0091 9.8022 10.9893 9.90061 10.9893 10C10.9893 10.0994 11.0091 10.1978 11.0474 10.2895C11.0858 10.3812 11.142 10.4643 11.2128 10.5341C11.2836 10.6039 11.3675 10.6589 11.4597 10.696C11.5519 10.733 11.6506 10.7514 11.75 10.75H13.627C13.7189 11.0297 13.8575 11.2965 14.0645 11.5293C14.4519 11.9652 15.0625 12.25 15.75 12.25C16.4375 12.25 17.0481 11.9652 17.4355 11.5293C17.823 11.0934 18 10.5417 18 10C18 9.45833 17.823 8.90659 17.4355 8.4707C17.0481 8.03482 16.4375 7.75 15.75 7.75ZM15.75 9.25C16.0625 9.25 16.2019 9.34018 16.3145 9.4668C16.427 9.59341 16.5 9.79167 16.5 10C16.5 10.2083 16.427 10.4066 16.3145 10.5332C16.2019 10.6598 16.0625 10.75 15.75 10.75C15.4375 10.75 15.2981 10.6598 15.1855 10.5332C15.0785 10.4128 15.0155 10.2233 15.0088 10.0264C15.0098 10.0085 15.0101 9.99057 15.0098 9.97266C15.0168 9.7762 15.0788 9.5869 15.1855 9.4668C15.2981 9.34018 15.4375 9.25 15.75 9.25ZM11.75 13C11.6506 12.9986 11.5519 13.017 11.4597 13.054C11.3675 13.0911 11.2836 13.1461 11.2128 13.2159C11.142 13.2857 11.0858 13.3688 11.0474 13.4605C11.0091 13.5522 10.9893 13.6506 10.9893 13.75C10.9893 13.8494 11.0091 13.9478 11.0474 14.0395C11.0858 14.1312 11.142 14.2143 11.2128 14.2841C11.2836 14.3539 11.3675 14.4089 11.4597 14.446C11.5519 14.483 11.6506 14.5014 11.75 14.5H12.9395L13.7158 15.2764C13.5756 15.5865 13.5 15.9186 13.5 16.25C13.5 16.7917 13.677 17.3434 14.0645 17.7793C14.4519 18.2152 15.0625 18.5 15.75 18.5C16.4375 18.5 17.0481 18.2152 17.4355 17.7793C17.823 17.3434 18 16.7917 18 16.25C18 15.7083 17.823 15.1566 17.4355 14.7207C17.0481 14.2848 16.4375 14 15.75 14C15.3961 14 15.0647 14.0782 14.7715 14.2109L13.7803 13.2197C13.6396 13.0791 13.4489 13 13.25 13H11.75ZM15.75 15.5C16.0625 15.5 16.2019 15.5902 16.3145 15.7168C16.427 15.8434 16.5 16.0417 16.5 16.25C16.5 16.4583 16.427 16.6566 16.3145 16.7832C16.2019 16.9098 16.0625 17 15.75 17C15.4375 17 15.2981 16.9098 15.1855 16.7832C15.073 16.6566 15 16.4583 15 16.25C15 16.0957 15.0409 15.9473 15.1074 15.8291C15.2012 15.7685 15.2803 15.6878 15.3389 15.5928C15.4342 15.5368 15.5574 15.5 15.75 15.5Z" fill="#A9A9CD"/>
</svg>
