<svg width="192" height="192" viewBox="0 0 192 192" fill="none" xmlns="http://www.w3.org/2000/svg">
<path d="M61.6239 142.19C54.9139 142.236 45.3239 137.011 39.2009 128.834C26.3879 111.737 30.6559 92.183 37.8779 85.598C43.7119 80.283 51.2609 80.013 61.3169 84.045C61.3169 95.269 61.6169 142.19 61.6169 142.19" fill="#242433"/>
<path d="M61.6239 142.19C54.9139 142.236 45.3239 137.011 39.2009 128.834C26.3879 111.737 30.6559 92.183 37.8779 85.598C43.7119 80.283 51.2609 80.013 61.3169 84.045C61.3209 95.269 61.6239 142.19 61.6239 142.19Z" stroke="#65656E" stroke-miterlimit="10" stroke-linecap="round"/>
<path d="M2.77831 31.6423C4.37231 20.8605 9.01433 12.2414 13.2702 7.1115C15.4155 4.52557 17.3902 2.91375 18.7537 2.30534C19.4612 1.98966 19.7905 2.0379 19.8731 2.07214C19.8906 2.07938 19.9123 2.089 19.9443 2.1459C19.9848 2.21789 20.0426 2.37326 20.0598 2.66253C20.1019 3.36741 20.0547 4.15375 19.9824 5.05203C19.9693 5.21532 19.9553 5.38236 19.9411 5.55263C19.8787 6.29801 19.8111 7.10532 19.786 7.93123C19.7235 9.98027 19.914 12.2691 21.1 14.5766C23.4741 19.1956 29.6003 23.4684 44.1023 26.5955L44.1023 26.5955C56.485 29.2652 63.5012 27.6923 67.8053 24.4762C71.165 21.9657 72.7578 18.4725 73.9473 15.8638C74.2495 15.2011 74.5256 14.5955 74.7981 14.0776C74.9332 13.8206 75.0473 13.7089 75.1064 13.6663C75.1494 13.6353 75.1607 13.6398 75.1691 13.6403C75.2484 13.6455 75.5687 13.7474 76.0827 14.3655C77.0667 15.5488 78.1829 17.9342 79.052 21.3049C80.7767 27.9944 81.4205 38.1449 78.4557 49.1131L79.4211 49.374L78.4557 49.1131C75.5012 60.0442 71.0101 67.9741 64.0112 72.4854C57.0222 76.9902 47.3154 78.2244 33.6108 75.2695L33.6107 75.2694C20.0371 72.3448 11.5791 66.9165 6.88295 59.5938C2.17764 52.2568 1.12504 42.8274 2.77831 31.6423ZM2.77831 31.6423L1.78916 31.496L2.77831 31.6423Z" fill="#242433" stroke="#65656E" stroke-width="2"/>
<path d="M33.4001 76.247C61.0791 82.215 73.4551 71.447 79.4211 49.374C85.4461 27.085 76.8301 8.067 73.9131 13.612C70.9961 19.157 68.8131 30.9 44.3131 25.618C15.4171 19.387 21.4311 8.858 21.0581 2.603C20.6851 -3.652 5.03406 9.547 1.78906 31.496C-1.55394 54.113 5.93406 70.329 33.4001 76.247Z" stroke="#242433" stroke-miterlimit="10"/>
<path d="M42.7382 33.477C35.3662 31.734 31.0622 30.334 28.2882 29.529C23.5882 28.165 15.8152 24.936 12.2162 41.629C10.2242 50.872 14.2942 57.299 19.4732 60.817C22.8732 63.127 28.8202 65.155 34.6182 66.492L36.3042 66.856C42.1402 68.026 48.3922 68.628 52.4432 67.925C58.6092 66.854 64.9662 62.673 66.9582 53.435C70.5582 36.735 62.1452 36.478 57.3012 35.785C54.4412 35.375 49.9422 34.877 42.5072 33.427L42.7382 33.477Z" fill="#1C1C28" stroke="#65656E" stroke-miterlimit="10"/>
<path d="M33.1318 57.787C33.7025 57.0902 34.4464 56.5557 35.289 56.2373C36.1315 55.9189 37.0429 55.8277 37.9318 55.973C38.7941 56.2031 39.579 56.6598 40.2052 57.2956C40.8314 57.9315 41.276 58.7233 41.4928 59.589" stroke="#65656E" stroke-miterlimit="10"/>
<path d="M22.3238 48.637L29.2418 50.129C29.5647 50.1982 29.9018 50.1363 30.1792 49.9571C30.4565 49.7778 30.6513 49.4958 30.7208 49.173L32.4448 41.173L29.7878 42.23C29.5573 42.3221 29.3045 42.3433 29.0618 42.291L23.7968 41.157C23.5103 41.0952 23.2109 41.1498 22.9645 41.3086C22.7181 41.4674 22.5449 41.7175 22.4828 42.004L21.3718 47.16C21.3029 47.4821 21.3644 47.8183 21.5428 48.0951C21.7212 48.372 22.0021 48.5668 22.3238 48.637Z" stroke="#65656E" stroke-miterlimit="10"/>
<path d="M55.1059 55.703L48.1909 54.211C48.0312 54.1767 47.8799 54.1113 47.7455 54.0185C47.6112 53.9257 47.4964 53.8073 47.4078 53.6702C47.3193 53.533 47.2586 53.3797 47.2292 53.2191C47.1999 53.0585 47.2025 52.8936 47.2369 52.734L48.9629 44.734L50.9469 46.789C51.1191 46.9674 51.3405 47.0907 51.5829 47.143L56.8469 48.279C56.9891 48.309 57.124 48.3669 57.2437 48.4494C57.3634 48.5318 57.4656 48.6372 57.5444 48.7594C57.6232 48.8815 57.6769 49.0181 57.7026 49.1612C57.7282 49.3043 57.7253 49.4511 57.6939 49.593L56.5829 54.749C56.5131 55.0712 56.3184 55.3525 56.0416 55.5313C55.7647 55.7102 55.4282 55.7719 55.1059 55.703Z" stroke="#65656E" stroke-miterlimit="10"/>
<path d="M61.2202 191.081V72.281C61.2205 66.3555 63.5744 60.6728 67.7643 56.4828C71.9541 52.2927 77.6367 49.9385 83.5622 49.938H168.356C174.282 49.9383 179.965 52.2923 184.155 56.4824C188.345 60.6725 190.699 66.3554 190.699 72.281V191.081" fill="#242433"/>
<path d="M61.2202 191.081V72.281C61.2205 66.3555 63.5744 60.6728 67.7643 56.4828C71.9541 52.2927 77.6367 49.9385 83.5622 49.938H168.356C174.282 49.9383 179.965 52.2923 184.155 56.4824C188.345 60.6725 190.699 66.3554 190.699 72.281V191.081" stroke="#65656E" stroke-miterlimit="10"/>
<path d="M174.506 83.703H78.9362C77.1369 83.703 75.6782 85.1617 75.6782 86.961V107.251C75.6782 109.05 77.1369 110.509 78.9362 110.509H174.506C176.306 110.509 177.764 109.05 177.764 107.251V86.961C177.764 85.1617 176.306 83.703 174.506 83.703Z" stroke="#65656E" stroke-width="1.03" stroke-miterlimit="10"/>
<path d="M174.506 119.525H78.9362C77.1369 119.525 75.6782 120.984 75.6782 122.783V143.073C75.6782 144.872 77.1369 146.331 78.9362 146.331H174.506C176.306 146.331 177.764 144.872 177.764 143.073V122.783C177.764 120.984 176.306 119.525 174.506 119.525Z" stroke="#65656E" stroke-width="1.03" stroke-miterlimit="10"/>
<path d="M174.506 155.347H78.9362C77.1369 155.347 75.6782 156.806 75.6782 158.605V178.895C75.6782 180.694 77.1369 182.153 78.9362 182.153H174.506C176.306 182.153 177.764 180.694 177.764 178.895V158.605C177.764 156.806 176.306 155.347 174.506 155.347Z" stroke="#65656E" stroke-width="1.03" stroke-miterlimit="10"/>
<path d="M103.171 97.107H153.942" stroke="#65656E" stroke-width="1.03" stroke-miterlimit="10" stroke-linecap="round"/>
<path d="M103.171 168.75H153.942" stroke="#65656E" stroke-width="1.03" stroke-miterlimit="10" stroke-linecap="round"/>
<path d="M116.021 67.986H140.821" stroke="#65656E" stroke-miterlimit="10" stroke-linecap="round"/>
<path d="M103.171 134.198H153.942" stroke="#65656E" stroke-width="1.03" stroke-miterlimit="10" stroke-linecap="round"/>
<path d="M94.6569 98.485C94.6569 98.6775 94.7334 98.8622 94.8695 98.9984C95.0057 99.1345 95.1903 99.211 95.3829 99.211C95.5754 99.211 95.7601 99.1345 95.8962 98.9984C96.0324 98.8622 96.1089 98.6775 96.1089 98.485V93.402C96.1088 93.3544 96.1044 93.3069 96.0959 93.26C96.0908 93.2386 96.0845 93.2176 96.0769 93.197L96.0539 93.124C96.0433 93.0999 96.0306 93.0768 96.0159 93.055C96.0079 93.0355 95.9982 93.0168 95.9869 92.999C95.9338 92.92 95.8659 92.8521 95.7869 92.799C95.7695 92.7882 95.7515 92.7785 95.7329 92.77C95.7104 92.7553 95.6866 92.7426 95.6619 92.732C95.6383 92.7222 95.6139 92.7145 95.5889 92.709C95.5679 92.703 95.5469 92.694 95.5259 92.69C95.479 92.6815 95.4315 92.6771 95.3839 92.677H90.2989C90.1063 92.677 89.9217 92.7535 89.7855 92.8896C89.6494 93.0258 89.5729 93.2105 89.5729 93.403C89.5729 93.5956 89.6494 93.7802 89.7855 93.9164C89.9217 94.0525 90.1063 94.129 90.2989 94.129H93.6299L87.3299 100.829C87.2624 100.896 87.209 100.976 87.1725 101.065C87.136 101.153 87.1172 101.247 87.1172 101.343C87.1172 101.535 87.1937 101.72 87.3299 101.856C87.4661 101.992 87.6508 102.069 87.8434 102.069C88.036 102.069 88.2207 101.992 88.3569 101.856L94.6569 95.156V98.485Z" fill="#65656E"/>
<path d="M94.6569 169.864C94.6569 170.057 94.7334 170.241 94.8695 170.377C95.0057 170.513 95.1903 170.59 95.3829 170.59C95.5754 170.59 95.7601 170.513 95.8962 170.377C96.0324 170.241 96.1089 170.057 96.1089 169.864V164.779C96.1088 164.731 96.1044 164.684 96.0959 164.637C96.0908 164.616 96.0845 164.595 96.0769 164.574L96.0539 164.501C96.0433 164.477 96.0306 164.454 96.0159 164.432C96.0079 164.413 95.9982 164.394 95.9869 164.376C95.9338 164.297 95.8659 164.229 95.7869 164.176C95.7695 164.165 95.7515 164.155 95.7329 164.147C95.7104 164.132 95.6866 164.12 95.6619 164.109C95.6383 164.099 95.6139 164.091 95.5889 164.086C95.5679 164.08 95.5469 164.071 95.5259 164.067C95.4782 164.057 95.4296 164.051 95.3809 164.05H90.2989C90.1063 164.05 89.9217 164.126 89.7855 164.263C89.6494 164.399 89.5729 164.583 89.5729 164.776C89.5729 164.969 89.6494 165.153 89.7855 165.289C89.9217 165.425 90.1063 165.502 90.2989 165.502H93.6299L87.3299 172.202C87.2624 172.269 87.209 172.349 87.1725 172.438C87.136 172.526 87.1172 172.62 87.1172 172.715C87.1172 172.908 87.1937 173.093 87.3299 173.229C87.4661 173.365 87.6508 173.442 87.8434 173.442C88.036 173.442 88.2207 173.365 88.3569 173.229L94.6569 166.529V169.864Z" fill="#65656E"/>
<path d="M88.5682 133.085C88.5682 132.892 88.4917 132.708 88.3556 132.572C88.2194 132.435 88.0348 132.359 87.8422 132.359C87.6497 132.359 87.465 132.435 87.3289 132.572C87.1927 132.708 87.1162 132.892 87.1162 133.085V138.17C87.1163 138.218 87.1207 138.265 87.1292 138.312C87.1343 138.333 87.1406 138.354 87.1482 138.375L87.1712 138.448C87.1818 138.472 87.1945 138.495 87.2092 138.517C87.2172 138.537 87.2269 138.556 87.2382 138.574C87.2913 138.653 87.3592 138.721 87.4382 138.774C87.4556 138.785 87.4736 138.795 87.4922 138.803C87.5147 138.818 87.5385 138.83 87.5632 138.841C87.5868 138.851 87.6112 138.859 87.6362 138.864C87.6572 138.87 87.6782 138.879 87.6992 138.883C87.7461 138.892 87.7936 138.896 87.8412 138.896H92.9262C93.0216 138.896 93.116 138.877 93.204 138.841C93.2921 138.804 93.3722 138.751 93.4396 138.683C93.507 138.616 93.5605 138.536 93.597 138.448C93.6334 138.36 93.6522 138.265 93.6522 138.17C93.6522 138.075 93.6334 137.98 93.597 137.892C93.5605 137.804 93.507 137.724 93.4396 137.657C93.3722 137.589 93.2921 137.536 93.204 137.499C93.116 137.463 93.0216 137.444 92.9262 137.444H89.5962L95.8962 130.744C95.9641 130.677 96.0181 130.597 96.055 130.509C96.092 130.42 96.1113 130.326 96.1117 130.23C96.1121 130.135 96.0937 130.04 96.0575 129.951C96.0213 129.863 95.968 129.782 95.9007 129.714C95.8334 129.647 95.7534 129.593 95.6652 129.556C95.5771 129.519 95.4825 129.499 95.3869 129.499C95.2913 129.499 95.1966 129.517 95.1081 129.553C95.0196 129.589 94.9391 129.643 94.8712 129.71L88.5712 136.41L88.5682 133.085Z" fill="#65656E"/>
<path d="M44.6085 112.72C46.6779 126.447 47.6129 135.146 43.7109 136.132C40.5253 136.939 32.5802 128.383 28.3499 116.7C24.0473 104.81 24.5275 94.7673 31.1354 92.8605C39.2471 90.5179 42.7547 100.438 44.6083 112.724" fill="#242433"/>
<path d="M44.6085 112.72C46.6779 126.447 47.6129 135.146 43.7109 136.132C40.5253 136.939 32.5803 128.383 28.3499 116.7C24.0473 104.81 24.5275 94.7673 31.1354 92.8605C39.2471 90.5179 42.7527 100.439 44.6085 112.72Z" stroke="#65656E" stroke-miterlimit="10"/>
<path d="M56.743 147.421L52.343 146.147C51.1624 145.805 50.166 145.007 49.5731 143.931C48.9801 142.854 48.8391 141.586 49.181 140.405L50.455 136.005C50.7973 134.824 51.5947 133.827 52.6719 133.234C53.749 132.64 55.0177 132.499 56.199 132.841L60.599 134.115C61.1839 134.284 61.7297 134.567 62.2052 134.948C62.6807 135.328 63.0765 135.799 63.37 136.332C63.6635 136.866 63.8489 137.452 63.9157 138.057C63.9824 138.663 63.9292 139.275 63.759 139.86L62.487 144.26C62.1444 145.441 61.3469 146.438 60.2699 147.031C59.1928 147.624 57.9242 147.766 56.743 147.424" fill="#242433"/>
<path d="M50.9084 134.428L48.7261 141.972C48.2655 143.564 49.1829 145.228 50.7751 145.689L58.3199 147.872C59.9121 148.332 61.5763 147.415 62.0369 145.823L64.2192 138.279C64.6798 136.686 63.7624 135.022 62.1702 134.562L54.6254 132.379C53.0332 131.919 51.369 132.836 50.9084 134.428Z" stroke="#65656E" stroke-width="1.0004" stroke-miterlimit="10"/>
<path d="M56.078 127.595C58.614 126.865 60.943 126.618 61.512 128.281C62.129 130.081 60.125 131.403 57.566 132.041C55.007 132.679 52.781 132.577 52.36 130.924C51.96 129.336 53.477 128.344 56.078 127.595Z" fill="#242433"/>
<path d="M56.078 127.595C58.614 126.865 60.943 126.618 61.512 128.281C62.129 130.081 60.125 131.403 57.566 132.041C55.007 132.679 52.781 132.577 52.36 130.924C51.958 129.335 53.477 128.344 56.078 127.595Z" stroke="#65656E" stroke-miterlimit="10"/>
</svg>
