<svg width="24" height="24" viewBox="0 0 24 24" fill="none" xmlns="http://www.w3.org/2000/svg">
<path d="M12.183 0.00166699C8.71192 -0.0502725 5.57819 1.38705 3.35594 3.70733L1.02378 1.37518C0.789771 1.14116 0.409314 1.14116 0.175302 1.37518C0.057696 1.49158 -0.000488281 1.64581 -0.000488281 1.79942V7.19969C-0.000488281 7.51797 0.125946 7.82321 0.351002 8.04827C0.576057 8.27332 0.881298 8.39976 1.19957 8.39976H6.59985C6.75346 8.39976 6.90649 8.34037 7.0241 8.22397C7.25811 7.98995 7.25811 7.6095 7.0241 7.37548L5.05993 5.41132C7.23356 3.1209 10.5023 1.8823 14.0299 2.6104C17.7201 3.37243 20.6788 6.35948 21.4084 10.0569C22.6205 16.1988 17.9296 21.6004 12.0001 21.6004C7.05708 21.6004 2.97552 17.8445 2.45589 13.0383C2.39109 12.4418 1.87461 11.9999 1.27458 11.9999C0.554541 11.9999 -0.00588856 12.6301 0.0745156 13.3453C0.74535 19.3312 5.83902 24.0006 12.0001 24.0006C19.3637 24.0006 25.1999 17.3326 23.7875 9.71701C22.8934 4.88916 18.981 1.03168 14.1448 0.186833C13.4819 0.0711768 12.8267 0.0113004 12.183 0.00166699ZM12.0001 4.79957C11.3377 4.79957 10.8001 5.3372 10.8001 5.99963V11.9999C10.8001 12.318 10.926 12.624 11.1517 12.8484L13.9034 15.6001C14.3714 16.0682 15.1323 16.0682 15.6003 15.6001C16.0683 15.1321 16.0683 14.3712 15.6003 13.9032L13.2002 11.503V5.99963C13.2002 5.3372 12.6626 4.79957 12.0001 4.79957Z" fill="#AFAFBE"/>
</svg>
