<svg width="23" height="23" viewBox="0 0 23 23" fill="none" xmlns="http://www.w3.org/2000/svg">
<path d="M0.97874 22.2776C1.17795 22.4719 1.41816 22.6183 1.68145 22.706C1.94474 22.7937 2.22431 22.8204 2.49927 22.7841L2.51189 22.7818L15.2968 22.7818C15.5406 22.785 15.7825 22.7393 16.0086 22.6476C16.2348 22.5558 16.4405 22.4198 16.614 22.2473C16.7875 22.0749 16.9253 21.8694 17.0193 21.6429C17.1133 21.4165 17.1617 21.1734 17.1617 20.928C17.1617 20.6825 17.1133 20.4395 17.0193 20.213C16.9253 19.9865 16.7875 19.781 16.614 19.6086C16.4405 19.4361 16.2348 19.3001 16.0086 19.2083C15.7825 19.1166 15.5406 19.071 15.2968 19.0741L6.72247 19.0747L21.9422 3.79059C22.2875 3.44289 22.4815 2.97132 22.4815 2.47961C22.4815 1.9879 22.2875 1.51633 21.9422 1.16864C21.5968 0.820947 21.1285 0.625616 20.6402 0.625615C20.1518 0.625615 19.6835 0.820947 19.3382 1.16864L4.11846 16.4527V7.81995C4.1216 7.5745 4.07629 7.33086 3.98516 7.10318C3.89404 6.8755 3.75892 6.6683 3.58764 6.49361C3.41637 6.31893 3.21234 6.18023 2.9874 6.08556C2.76247 5.99089 2.5211 5.94214 2.2773 5.94215C2.03351 5.94215 1.79214 5.99089 1.56721 6.08556C1.34227 6.18023 1.13824 6.31893 0.966965 6.49361C0.795687 6.6683 0.660567 6.8755 0.569445 7.10318C0.478323 7.33086 0.433012 7.5745 0.436143 7.81995L0.43729 20.7079C0.400037 20.9939 0.429584 21.2848 0.52358 21.5573C0.617577 21.8298 0.773428 22.0764 0.97874 22.2776Z" fill="#159B24"/>
</svg>
