<svg width="23" height="23" viewBox="0 0 23 23" fill="none" xmlns="http://www.w3.org/2000/svg">
<path d="M21.5359 0.760797C21.3367 0.56653 21.0965 0.420078 20.8332 0.332377C20.5699 0.244676 20.2903 0.21799 20.0154 0.25431L20.0028 0.256621L7.21787 0.256621C6.9741 0.253468 6.73213 0.29909 6.506 0.39084C6.27988 0.48259 6.0741 0.618641 5.90061 0.7911C5.72711 0.963558 5.58936 1.16899 5.49534 1.39547C5.40133 1.62196 5.35291 1.86499 5.35291 2.11046C5.35291 2.35594 5.40133 2.59897 5.49534 2.82545C5.58936 3.05194 5.72711 3.25737 5.90061 3.42983C6.0741 3.60229 6.27988 3.73834 6.506 3.83009C6.73213 3.92184 6.9741 3.96746 7.21787 3.96431L15.7922 3.96373L0.572487 19.2478C0.227174 19.5955 0.0331785 20.0671 0.0331785 20.5588C0.0331785 21.0505 0.227174 21.5221 0.572487 21.8698C0.9178 22.2175 1.38614 22.4128 1.87449 22.4128C2.36284 22.4128 2.83118 22.2175 3.1765 21.8698L18.3962 6.58568V15.2185C18.3931 15.4639 18.4384 15.7076 18.5295 15.9352C18.6206 16.1629 18.7557 16.3701 18.927 16.5448C19.0983 16.7195 19.3023 16.8582 19.5272 16.9529C19.7522 17.0475 19.9935 17.0963 20.2373 17.0963C20.4811 17.0963 20.7225 17.0475 20.9474 16.9529C21.1724 16.8582 21.3764 16.7195 21.5477 16.5448C21.719 16.3701 21.8541 16.1629 21.9452 15.9352C22.0363 15.7076 22.0816 15.4639 22.0785 15.2185L22.0774 2.3305C22.1146 2.04448 22.0851 1.75365 21.9911 1.48115C21.8971 1.20865 21.7412 0.961991 21.5359 0.760797Z" fill="#FC2727"/>
</svg>
