<svg width="22" height="22" viewBox="0 0 22 22" fill="none" xmlns="http://www.w3.org/2000/svg">
<path d="M8.85547 0.5L8.49219 2.43359C7.09766 2.84375 5.85547 3.57031 4.83594 4.54297L2.97852 3.89258L0.833984 7.60742L2.31641 8.87891C2.14648 9.56445 2 10.2617 2 11C2 11.7383 2.14648 12.4355 2.31641 13.1211L0.833984 14.3926L2.97852 18.1074L4.83008 17.4512C5.85547 18.4355 7.09766 19.1562 8.49219 19.5723L8.85547 21.5H13.1445L13.5078 19.5723C14.9023 19.1562 16.1445 18.4297 17.1641 17.4512L19.0156 18.1074L21.166 14.3926L19.6777 13.1211C19.8477 12.4355 20 11.7383 20 11C20 10.2617 19.8535 9.56445 19.6836 8.87891L21.166 7.60742L19.0215 3.89258L17.1699 4.54297C16.1445 3.56445 14.9023 2.84375 13.5078 2.43359L13.1445 0.5H8.85547ZM10.0977 2H11.9023L12.1953 3.58203L12.6758 3.69922C14.1641 4.03906 15.4766 4.81836 16.4844 5.89648L16.8184 6.25391L18.3418 5.7207L19.2441 7.2793L18.0254 8.32812L18.1719 8.79688C18.3828 9.48828 18.5 10.2324 18.5 11C18.5 11.7676 18.3828 12.5059 18.1719 13.2031L18.0254 13.6719L19.2441 14.7207L18.3418 16.2793L16.8184 15.7402L16.4844 16.1035C15.4766 17.1816 14.1641 17.9609 12.6758 18.3066L12.1953 18.4121L11.9023 20H10.0977L9.80469 18.4121L9.32422 18.3066C7.83594 17.9609 6.52344 17.1816 5.51563 16.1035L5.17578 15.7402L3.65234 16.2793L2.75586 14.7207L3.97461 13.6719L3.82813 13.2031C3.61719 12.5117 3.5 11.7676 3.5 11C3.5 10.2324 3.61719 9.48828 3.82813 8.79688L3.97461 8.32812L2.75586 7.2793L3.65234 5.7207L5.18164 6.25391L5.51563 5.89648C6.52344 4.81836 7.83594 4.03906 9.32422 3.69922L9.80469 3.58203L10.0977 2ZM11 6.5C8.52148 6.5 6.5 8.52148 6.5 11C6.5 13.4785 8.52148 15.5 11 15.5C13.4785 15.5 15.5 13.4785 15.5 11C15.5 8.52148 13.4785 6.5 11 6.5ZM11 8C12.6641 8 14 9.33594 14 11C14 12.6641 12.6641 14 11 14C9.33594 14 8 12.6641 8 11C8 9.33594 9.33594 8 11 8Z" fill="#A9A9CD"/>
</svg>
