<svg width="24" height="24" viewBox="0 0 24 24" fill="none" xmlns="http://www.w3.org/2000/svg">
<path d="M4.9936 1.43994C4.09735 1.43994 3.36048 2.17682 3.36048 3.07119V11.8068C3.36048 12.7031 4.09735 13.4399 4.9936 13.4399H13.7274C14.6236 13.4399 15.3605 12.7031 15.3605 11.8068V3.07119C15.3605 2.17682 14.6236 1.43994 13.7274 1.43994H4.9936ZM4.9936 2.39994H6.72048C6.72048 2.66432 6.9361 2.87994 7.20048 2.87994C7.46485 2.87994 7.68048 2.66432 7.68048 2.39994H9.60048C9.60048 2.66432 9.8161 2.87994 10.0805 2.87994C10.3449 2.87994 10.5605 2.66432 10.5605 2.39994H12.4805C12.4805 2.66432 12.6961 2.87994 12.9605 2.87994C13.2249 2.87994 13.4405 2.66432 13.4405 2.39994H13.7274C14.1061 2.39994 14.4005 2.69432 14.4005 3.07119V3.35994C14.1361 3.35994 13.9205 3.57557 13.9205 3.83994C13.9205 4.10432 14.1361 4.31994 14.4005 4.31994V6.23994C14.1361 6.23994 13.9205 6.45557 13.9205 6.71994C13.9205 6.98432 14.1361 7.19994 14.4005 7.19994V9.11994C14.1361 9.11994 13.9205 9.33557 13.9205 9.59994C13.9205 9.86432 14.1361 10.0799 14.4005 10.0799V11.8068C14.4005 11.8762 14.3892 11.9399 14.3705 12.0018C14.1286 12.0168 13.9374 12.2081 13.9205 12.4499C13.8605 12.4687 13.7967 12.4799 13.7274 12.4799H12.0005C12.0005 12.2156 11.7849 11.9999 11.5205 11.9999C11.2561 11.9999 11.0405 12.2156 11.0405 12.4799H9.12048C9.12048 12.2156 8.90485 11.9999 8.64048 11.9999C8.3761 11.9999 8.16048 12.2156 8.16048 12.4799H6.24048C6.24048 12.2156 6.02485 11.9999 5.76048 11.9999C5.4961 11.9999 5.28048 12.2156 5.28048 12.4799H4.9936C4.61485 12.4799 4.32048 12.1856 4.32048 11.8068V11.5199C4.58485 11.5199 4.80048 11.3043 4.80048 11.0399C4.80048 10.7756 4.58485 10.5599 4.32048 10.5599V8.63994C4.58485 8.63994 4.80048 8.42432 4.80048 8.15994C4.80048 7.89557 4.58485 7.67994 4.32048 7.67994V5.75994C4.58485 5.75994 4.80048 5.54432 4.80048 5.27994C4.80048 5.01557 4.58485 4.79994 4.32048 4.79994V3.07119C4.32048 3.00369 4.33173 2.93994 4.35048 2.87807C4.59235 2.86307 4.7836 2.67182 4.80048 2.42994C4.86048 2.41119 4.92423 2.39994 4.9936 2.39994ZM5.76048 3.35994C5.4961 3.35994 5.28048 3.57557 5.28048 3.83994C5.28048 4.10432 5.4961 4.31994 5.76048 4.31994C6.02485 4.31994 6.24048 4.10432 6.24048 3.83994C6.24048 3.57557 6.02485 3.35994 5.76048 3.35994ZM8.64048 3.35994C8.3761 3.35994 8.16048 3.57557 8.16048 3.83994C8.16048 4.10432 8.3761 4.31994 8.64048 4.31994C8.90485 4.31994 9.12048 4.10432 9.12048 3.83994C9.12048 3.57557 8.90485 3.35994 8.64048 3.35994ZM11.5205 3.35994C11.2561 3.35994 11.0405 3.57557 11.0405 3.83994C11.0405 4.10432 11.2561 4.31994 11.5205 4.31994C11.7849 4.31994 12.0005 4.10432 12.0005 3.83994C12.0005 3.57557 11.7849 3.35994 11.5205 3.35994ZM7.20048 4.79994C6.9361 4.79994 6.72048 5.01557 6.72048 5.27994C6.72048 5.54432 6.9361 5.75994 7.20048 5.75994C7.46485 5.75994 7.68048 5.54432 7.68048 5.27994C7.68048 5.01557 7.46485 4.79994 7.20048 4.79994ZM10.0805 4.79994C9.8161 4.79994 9.60048 5.01557 9.60048 5.27994C9.60048 5.54432 9.8161 5.75994 10.0805 5.75994C10.3449 5.75994 10.5605 5.54432 10.5605 5.27994C10.5605 5.01557 10.3449 4.79994 10.0805 4.79994ZM12.9605 4.79994C12.6961 4.79994 12.4805 5.01557 12.4805 5.27994C12.4805 5.54432 12.6961 5.75994 12.9605 5.75994C13.2249 5.75994 13.4405 5.54432 13.4405 5.27994C13.4405 5.01557 13.2249 4.79994 12.9605 4.79994ZM5.76048 6.23994C5.4961 6.23994 5.28048 6.45557 5.28048 6.71994C5.28048 6.98432 5.4961 7.19994 5.76048 7.19994C6.02485 7.19994 6.24048 6.98432 6.24048 6.71994C6.24048 6.45557 6.02485 6.23994 5.76048 6.23994ZM8.64048 6.23994C8.3761 6.23994 8.16048 6.45557 8.16048 6.71994C8.16048 6.98432 8.3761 7.19994 8.64048 7.19994C8.90485 7.19994 9.12048 6.98432 9.12048 6.71994C9.12048 6.45557 8.90485 6.23994 8.64048 6.23994ZM11.5205 6.23994C11.2561 6.23994 11.0405 6.45557 11.0405 6.71994C11.0405 6.98432 11.2561 7.19994 11.5205 7.19994C11.7849 7.19994 12.0005 6.98432 12.0005 6.71994C12.0005 6.45557 11.7849 6.23994 11.5205 6.23994ZM7.20048 7.67994C6.9361 7.67994 6.72048 7.89557 6.72048 8.15994C6.72048 8.42432 6.9361 8.63994 7.20048 8.63994C7.46485 8.63994 7.68048 8.42432 7.68048 8.15994C7.68048 7.89557 7.46485 7.67994 7.20048 7.67994ZM10.0805 7.67994C9.8161 7.67994 9.60048 7.89557 9.60048 8.15994C9.60048 8.42432 9.8161 8.63994 10.0805 8.63994C10.3449 8.63994 10.5605 8.42432 10.5605 8.15994C10.5605 7.89557 10.3449 7.67994 10.0805 7.67994ZM12.9605 7.67994C12.6961 7.67994 12.4805 7.89557 12.4805 8.15994C12.4805 8.42432 12.6961 8.63994 12.9605 8.63994C13.2249 8.63994 13.4405 8.42432 13.4405 8.15994C13.4405 7.89557 13.2249 7.67994 12.9605 7.67994ZM16.3205 8.63994V9.59994H20.9274C21.3061 9.59994 21.6005 9.89432 21.6005 10.2731V19.0068C21.6005 19.3856 21.3061 19.6799 20.9274 19.6799H12.1936C11.8149 19.6799 11.5205 19.3856 11.5205 19.0068V14.3999H10.5605V19.0068C10.5605 19.9031 11.2974 20.6399 12.1936 20.6399H20.9274C21.8236 20.6399 22.5605 19.9031 22.5605 19.0068V10.2731C22.5605 9.37682 21.8236 8.63994 20.9274 8.63994H16.3205ZM5.76048 9.11994C5.4961 9.11994 5.28048 9.33557 5.28048 9.59994C5.28048 9.86432 5.4961 10.0799 5.76048 10.0799C6.02485 10.0799 6.24048 9.86432 6.24048 9.59994C6.24048 9.33557 6.02485 9.11994 5.76048 9.11994ZM8.64048 9.11994C8.3761 9.11994 8.16048 9.33557 8.16048 9.59994C8.16048 9.86432 8.3761 10.0799 8.64048 10.0799C8.90485 10.0799 9.12048 9.86432 9.12048 9.59994C9.12048 9.33557 8.90485 9.11994 8.64048 9.11994ZM11.5205 9.11994C11.2561 9.11994 11.0405 9.33557 11.0405 9.59994C11.0405 9.86432 11.2561 10.0799 11.5205 10.0799C11.7849 10.0799 12.0005 9.86432 12.0005 9.59994C12.0005 9.33557 11.7849 9.11994 11.5205 9.11994ZM7.20048 10.5599C6.9361 10.5599 6.72048 10.7756 6.72048 11.0399C6.72048 11.3043 6.9361 11.5199 7.20048 11.5199C7.46485 11.5199 7.68048 11.3043 7.68048 11.0399C7.68048 10.7756 7.46485 10.5599 7.20048 10.5599ZM10.0805 10.5599C9.8161 10.5599 9.60048 10.7756 9.60048 11.0399C9.60048 11.3043 9.8161 11.5199 10.0805 11.5199C10.3449 11.5199 10.5605 11.3043 10.5605 11.0399C10.5605 10.7756 10.3449 10.5599 10.0805 10.5599ZM12.9605 10.5599C12.6961 10.5599 12.4805 10.7756 12.4805 11.0399C12.4805 11.3043 12.6961 11.5199 12.9605 11.5199C13.2249 11.5199 13.4405 11.3043 13.4405 11.0399C13.4405 10.7756 13.2249 10.5599 12.9605 10.5599ZM1.91298 14.3924C1.6486 14.3981 1.43673 14.6156 1.44048 14.8799V19.1999C1.44048 19.9893 2.0911 20.6399 2.88048 20.6399H7.48173L6.3811 21.7406C6.25548 21.8606 6.20485 22.0406 6.24985 22.2074C6.29298 22.3762 6.42423 22.5074 6.59298 22.5506C6.75985 22.5956 6.93985 22.5449 7.05985 22.4193L8.9386 20.5424C9.05673 20.4506 9.1261 20.3099 9.1261 20.1599C9.12798 20.0118 9.0586 19.8712 8.94048 19.7793C8.9386 19.7793 8.9386 19.7774 8.93673 19.7774L7.05985 17.9006C6.96985 17.8068 6.8461 17.7562 6.71485 17.7543C6.51985 17.7562 6.34548 17.8743 6.27048 18.0543C6.19735 18.2362 6.24048 18.4424 6.3811 18.5793L7.48173 19.6799H2.88048C2.6086 19.6799 2.40048 19.4718 2.40048 19.1999V14.8799C2.40235 14.7506 2.35173 14.6249 2.25985 14.5331C2.16798 14.4412 2.04235 14.3906 1.91298 14.3924Z" fill="#A9A9CD"/>
</svg>
