<svg width="19" height="15" viewBox="0 0 19 15" fill="none" xmlns="http://www.w3.org/2000/svg">
<path d="M16.3181 2.40411C16.3101 2.39578 16.298 2.38745 16.286 2.37495C15.3287 1.57495 14.0468 1.16661 13.1415 0.970779C12.2482 0.774946 11.3549 1.30411 11.0665 2.19995C11.0625 2.21661 11.0545 2.22911 11.0505 2.24578C12.5527 2.40411 13.8946 2.83328 14.9842 3.50411C15.2686 3.67911 15.3607 4.06245 15.1925 4.36245C15.0803 4.55828 14.88 4.66661 14.6757 4.66661C14.5716 4.66661 14.4634 4.63745 14.3673 4.57911C13.1415 3.82078 11.5152 3.42078 9.66851 3.42078C7.82185 3.42078 6.19552 3.82078 4.96975 4.57911C4.68134 4.75411 4.31281 4.65828 4.14456 4.36245C3.97632 4.06245 4.06846 3.67911 4.35286 3.50411C5.44243 2.83328 6.78436 2.40411 8.28652 2.24578C8.28252 2.22911 8.27451 2.21661 8.2705 2.19995C7.98208 1.30411 7.0888 0.774946 6.19551 0.970779C5.29021 1.16661 4.00837 1.57495 3.05099 2.37495C3.03897 2.38745 3.02696 2.39578 3.01895 2.40411C2.12967 3.26245 0.487305 7.62911 0.487305 11.5958C0.487305 11.7041 0.511339 11.8083 0.563414 11.9041C1.54082 13.6916 3.84413 14.3458 4.7935 14.5416C4.90967 14.5666 5.02583 14.5791 5.142 14.5791C5.71082 14.5791 6.25961 14.2958 6.6001 13.8041L6.8084 13.5083C4.74543 12.9999 3.68791 12.0833 3.62782 12.0291C3.37546 11.8041 3.34341 11.4124 3.55972 11.1499C3.77603 10.8874 4.15258 10.8541 4.40494 11.0749C4.43699 11.1041 6.20353 12.5916 9.66851 12.5916C13.1495 12.5916 14.9161 11.0916 14.9321 11.0749C15.1844 10.8541 15.565 10.8874 15.7773 11.1541C15.9896 11.4166 15.9616 11.8083 15.7092 12.0291C15.6491 12.0833 14.5916 12.9999 12.5286 13.5083L12.7369 13.8041C13.0774 14.2958 13.6262 14.5791 14.195 14.5791C14.3112 14.5791 14.4274 14.5666 14.5435 14.5416C15.4929 14.3458 17.7962 13.6916 18.7736 11.9041C18.8257 11.8083 18.8497 11.7041 18.8497 11.5958C18.8497 7.62911 17.2074 3.26245 16.3181 2.40411ZM7.07678 10.4666C6.31168 10.4666 5.69079 9.72911 5.69079 8.81661C5.69079 7.90411 6.31168 7.16661 7.07678 7.16661C7.84589 7.16661 8.46678 7.90411 8.46678 8.81661C8.46678 9.72911 7.84589 10.4666 7.07678 10.4666ZM12.2482 10.4999C11.4751 10.4999 10.8462 9.75411 10.8462 8.83328C10.8462 7.91245 11.4751 7.16661 12.2482 7.16661C13.0253 7.16661 13.6502 7.91245 13.6502 8.83328C13.6502 9.75411 13.0253 10.4999 12.2482 10.4999Z" fill="#2879FB"/>
</svg>
