<svg width="17" height="17" viewBox="0 0 17 17" fill="none" xmlns="http://www.w3.org/2000/svg">
<path d="M7.49037 0.750062C3.80507 1.16673 0.840808 4.25006 0.440232 8.00006C0.0396558 11.9167 2.20277 15.4167 5.48749 16.7501C5.72784 16.8334 5.96818 16.6667 5.96818 16.3334V15.0001C5.96818 15.0001 5.64772 15.0834 5.24715 15.0834C4.12553 15.0834 3.64484 14.0834 3.56473 13.5001C3.48461 13.1667 3.32438 12.9167 3.08404 12.6667C2.84369 12.5834 2.76357 12.5834 2.76357 12.5001C2.76357 12.3334 3.00392 12.3334 3.08404 12.3334C3.56473 12.3334 3.9653 12.9167 4.12553 13.1667C4.52611 13.8334 5.0068 14.0001 5.24715 14.0001C5.56761 14.0001 5.80795 13.9167 5.96818 13.8334C6.0483 13.2501 6.28865 12.6667 6.76934 12.3334C4.92669 11.9167 3.56473 10.8334 3.56473 9.00006C3.56473 8.0834 3.9653 7.16673 4.52611 6.50006C4.44599 6.3334 4.36588 5.91673 4.36588 5.3334C4.36588 5.00006 4.36588 4.5834 4.52611 4.25006C4.52611 4.0834 4.68634 4.00006 4.76646 4.00006H4.84657C5.24715 4.0834 6.0483 4.3334 6.76934 5.0834C7.25003 4.91673 7.81084 4.8334 8.37164 4.8334C8.93245 4.8334 9.49326 4.91673 9.97395 5.0834C10.695 4.3334 11.5763 4.0834 11.9768 4.00006H12.0569C12.2172 4.00006 12.2973 4.0834 12.3774 4.25006C12.3774 4.5834 12.3774 5.00006 12.3774 5.3334C12.3774 6.00006 12.2973 6.3334 12.2172 6.50006C12.778 7.16673 13.1786 8.00006 13.1786 9.00006C13.1786 10.8334 11.8166 11.9167 9.97395 12.3334C10.4546 12.7501 10.7751 13.5001 10.7751 14.2501V16.4167C10.7751 16.6667 11.0154 16.9167 11.3359 16.8334C14.3002 15.5834 16.3832 12.5834 16.3832 9.0834C16.3832 4.0834 12.2973 0.166729 7.49037 0.750062Z" fill="#2879FB"/>
</svg>
