<svg width="15" height="14" viewBox="0 0 15 14" fill="none" xmlns="http://www.w3.org/2000/svg">
<path d="M1.10156 5.85588C5.63256 3.7825 11.496 1.25463 12.3054 0.904755C14.4285 -0.0109946 15.08 0.164505 14.7551 2.19251C14.5219 3.65013 13.8488 8.476 13.3123 11.4798C12.994 13.261 12.2798 13.4721 11.1568 12.7015C10.6167 12.3306 7.89085 10.4556 7.29924 10.0154C6.75918 9.61413 6.01435 9.13151 6.94845 8.18088C7.28085 7.84226 9.45982 5.67813 11.1575 3.99363C11.3799 3.77238 11.1005 3.409 10.8439 3.58638C8.55564 5.16475 5.38308 7.3555 4.9793 7.64088C4.3693 8.07175 3.78346 8.26938 2.73183 7.95513C1.93724 7.71776 1.16105 7.43463 0.858931 7.32663C-0.304462 6.91113 -0.0283049 6.373 1.10156 5.85588Z" fill="#2879FB"/>
</svg>
