<svg width="23" height="20" viewBox="0 0 23 20" fill="none" xmlns="http://www.w3.org/2000/svg">
<path d="M11.3849 0C7.38033 0 3.94367 2.541 2.48324 6.15126H4.12912C4.97525 4.43323 6.37193 3.05761 8.07577 2.27068C7.42669 3.29789 6.90511 4.61344 6.58057 6.15126H8.11634C8.7886 3.32793 10.1331 1.53781 11.3849 1.53781C12.6367 1.53781 13.9813 3.32793 14.6535 6.15126H16.1893C15.8648 4.61344 15.3432 3.29789 14.6941 2.27068C16.3979 3.05761 17.7946 4.43323 18.6407 6.15126H20.2866C18.8262 2.541 15.3895 0 11.3849 0ZM0.257812 7.68907L1.70666 13.8403H3.10914L3.96685 9.9177L4.82457 13.8403H6.22705L7.67589 7.68907H6.19228L5.48524 11.3894L4.70866 7.68907H3.22504L2.44846 11.3894L1.74143 7.68907H0.257812ZM7.67589 7.68907L9.12473 13.8403H10.5272L11.3849 9.9177L12.2426 13.8403H13.6451L15.094 7.68907H13.6104L12.9033 11.3894L12.1267 7.68907H10.6431L9.86654 11.3894L9.15951 7.68907H7.67589ZM15.094 7.68907L16.5486 13.8403H17.9453L18.803 9.9177L19.6607 13.8403H21.0574L22.512 7.68907H21.0284L20.3272 11.3894L19.5448 7.68907H18.0612L17.2788 11.3894L16.5776 7.68907H15.094ZM3.27141 15.3781C4.98684 18.1474 7.97725 19.9916 11.3849 19.9916C14.7926 19.9916 17.783 18.1474 19.4985 15.3781H17.6729C16.8731 16.3753 15.8532 17.1743 14.6999 17.7089C15.1172 17.0481 15.4881 16.2672 15.7778 15.3781H14.1783C13.4481 17.2884 12.3933 18.4538 11.3849 18.4538C10.3765 18.4538 9.32178 17.2884 8.59156 15.3781H6.99204C7.28181 16.2672 7.65271 17.0481 8.06998 17.7089C6.9167 17.1743 5.89671 16.3753 5.09695 15.3781H3.27141Z" fill="white"/>
</svg>
