<svg xmlns="http://www.w3.org/2000/svg" viewBox="0 0 514.5 514.5"><defs><style>.cls-1{fill:#06bc06;}.cls-2{fill:#257cff;stroke:#227aff;stroke-miterlimit:10;stroke-width:5px;}</style></defs><g id="Layer_2" data-name="Layer 2"><g id="Layer_1-2" data-name="Layer 1"><path class="cls-1" d="M138.43,201.16,35.64,303.94a122,122,0,0,0,0,172.31l2.56,2.57a121.91,121.91,0,0,0,172.35,0l98.91-98.89a153.68,153.68,0,0,1-22.06,1.59,151.52,151.52,0,0,1-58.74-11.74l-62.3,62.29a59.37,59.37,0,0,1-84-83.95L182.62,247.91a59.38,59.38,0,0,1,82.84-1.08c.4.33.79.68,1.16,1a29.39,29.39,0,0,0,41.55,0l22.44-22.43a122,122,0,0,0-17.26-21.72l-2.56-2.56a121.91,121.91,0,0,0-172.36,0Z"/><path class="cls-2" d="M476.37,213.06a122,122,0,0,0,0-172.31l-2.57-2.56a121.88,121.88,0,0,0-172.35,0l-98.91,98.88a153.92,153.92,0,0,1,22.07-1.59,151.65,151.65,0,0,1,58.73,11.74l62.3-62.29a59.37,59.37,0,0,1,84,83.95L329.38,269.09a59.36,59.36,0,0,1-82.83,1.08,14.59,14.59,0,0,1-1.17-1.05,29.38,29.38,0,0,0-41.54,0L181.4,291.55a121.47,121.47,0,0,0,17.25,21.72l2.57,2.57a121.91,121.91,0,0,0,172.35,0Z"/></g></g></svg>